<?xml version="1.0" encoding="utf-8" standalone="no"?>
<!DOCTYPE svg PUBLIC "-//W3C//DTD SVG 1.1//EN"
  "http://www.w3.org/Graphics/SVG/1.1/DTD/svg11.dtd">
<svg xmlns:xlink="http://www.w3.org/1999/xlink" width="856.760625pt" height="1432.136875pt" viewBox="0 0 856.760625 1432.136875" xmlns="http://www.w3.org/2000/svg" version="1.1">
 <metadata>
  <rdf:RDF xmlns:dc="http://purl.org/dc/elements/1.1/" xmlns:cc="http://creativecommons.org/ns#" xmlns:rdf="http://www.w3.org/1999/02/22-rdf-syntax-ns#">
   <cc:Work>
    <dc:type rdf:resource="http://purl.org/dc/dcmitype/StillImage"/>
    <dc:date>2025-06-07T17:13:51.150718</dc:date>
    <dc:format>image/svg+xml</dc:format>
    <dc:creator>
     <cc:Agent>
      <dc:title>Matplotlib v3.10.3, https://matplotlib.org/</dc:title>
     </cc:Agent>
    </dc:creator>
   </cc:Work>
  </rdf:RDF>
 </metadata>
 <defs>
  <style type="text/css">*{stroke-linejoin: round; stroke-linecap: butt}</style>
 </defs>
 <g id="figure_1">
  <g id="patch_1">
   <path d="M 0 1432.136875 
L 856.760625 1432.136875 
L 856.760625 0 
L 0 0 
z
" style="fill: #ffffff"/>
  </g>
  <g id="axes_1">
   <g id="patch_2">
    <path d="M 153.750625 1386.838125 
L 849.560625 1386.838125 
L 849.560625 23.878125 
L 153.750625 23.878125 
z
" style="fill: #ffffff"/>
   </g>
   <g id="patch_3">
    <path d="M 153.750625 85.830852 
L 816.426815 85.830852 
L 816.426815 94.000443 
L 153.750625 94.000443 
z
" clip-path="url(#p0939e9a964)" style="fill: #1f77b4"/>
   </g>
   <g id="patch_4">
    <path d="M 153.750625 140.294788 
L 421.769307 140.294788 
L 421.769307 148.464379 
L 153.750625 148.464379 
z
" clip-path="url(#p0939e9a964)" style="fill: #1f77b4"/>
   </g>
   <g id="patch_5">
    <path d="M 153.750625 194.758724 
L 362.900918 194.758724 
L 362.900918 202.928315 
L 153.750625 202.928315 
z
" clip-path="url(#p0939e9a964)" style="fill: #1f77b4"/>
   </g>
   <g id="patch_6">
    <path d="M 153.750625 249.22266 
L 271.583124 249.22266 
L 271.583124 257.392251 
L 153.750625 257.392251 
z
" clip-path="url(#p0939e9a964)" style="fill: #1f77b4"/>
   </g>
   <g id="patch_7">
    <path d="M 153.750625 303.686597 
L 277.422102 303.686597 
L 277.422102 311.856187 
L 153.750625 311.856187 
z
" clip-path="url(#p0939e9a964)" style="fill: #1f77b4"/>
   </g>
   <g id="patch_8">
    <path d="M 153.750625 358.150533 
L 292.16313 358.150533 
L 292.16313 366.320123 
L 153.750625 366.320123 
z
" clip-path="url(#p0939e9a964)" style="fill: #1f77b4"/>
   </g>
   <g id="patch_9">
    <path d="M 153.750625 412.614469 
L 209.747385 412.614469 
L 209.747385 420.784059 
L 153.750625 420.784059 
z
" clip-path="url(#p0939e9a964)" style="fill: #1f77b4"/>
   </g>
   <g id="patch_10">
    <path d="M 153.750625 467.078405 
L 239.133719 467.078405 
L 239.133719 475.247995 
L 153.750625 475.247995 
z
" clip-path="url(#p0939e9a964)" style="fill: #1f77b4"/>
   </g>
   <g id="patch_11">
    <path d="M 153.750625 521.542341 
L 200.845336 521.542341 
L 200.845336 529.711931 
L 153.750625 529.711931 
z
" clip-path="url(#p0939e9a964)" style="fill: #1f77b4"/>
   </g>
   <g id="patch_12">
    <path d="M 153.750625 576.006277 
L 195.006358 576.006277 
L 195.006358 584.175867 
L 153.750625 584.175867 
z
" clip-path="url(#p0939e9a964)" style="fill: #1f77b4"/>
   </g>
   <g id="patch_13">
    <path d="M 153.750625 630.470213 
L 203.812686 630.470213 
L 203.812686 638.639803 
L 153.750625 638.639803 
z
" clip-path="url(#p0939e9a964)" style="fill: #1f77b4"/>
   </g>
   <g id="patch_14">
    <path d="M 153.750625 684.934149 
L 162.556953 684.934149 
L 162.556953 693.103739 
L 153.750625 693.103739 
z
" clip-path="url(#p0939e9a964)" style="fill: #1f77b4"/>
   </g>
   <g id="patch_15">
    <path d="M 153.750625 739.398085 
L 180.26533 739.398085 
L 180.26533 747.567675 
L 153.750625 747.567675 
z
" clip-path="url(#p0939e9a964)" style="fill: #1f77b4"/>
   </g>
   <g id="patch_16">
    <path d="M 153.750625 793.862021 
L 165.524303 793.862021 
L 165.524303 802.031612 
L 153.750625 802.031612 
z
" clip-path="url(#p0939e9a964)" style="fill: #1f77b4"/>
   </g>
   <g id="patch_17">
    <path d="M 153.750625 848.325957 
L 168.491652 848.325957 
L 168.491652 856.495548 
L 153.750625 856.495548 
z
" clip-path="url(#p0939e9a964)" style="fill: #1f77b4"/>
   </g>
   <g id="patch_18">
    <path d="M 153.750625 902.789893 
L 162.556953 902.789893 
L 162.556953 910.959484 
L 153.750625 910.959484 
z
" clip-path="url(#p0939e9a964)" style="fill: #1f77b4"/>
   </g>
   <g id="patch_19">
    <path d="M 153.750625 957.253829 
L 162.556953 957.253829 
L 162.556953 965.42342 
L 153.750625 965.42342 
z
" clip-path="url(#p0939e9a964)" style="fill: #1f77b4"/>
   </g>
   <g id="patch_20">
    <path d="M 153.750625 1011.717765 
L 165.524303 1011.717765 
L 165.524303 1019.887356 
L 153.750625 1019.887356 
z
" clip-path="url(#p0939e9a964)" style="fill: #1f77b4"/>
   </g>
   <g id="patch_21">
    <path d="M 153.750625 1066.181701 
L 156.717975 1066.181701 
L 156.717975 1074.351292 
L 153.750625 1074.351292 
z
" clip-path="url(#p0939e9a964)" style="fill: #1f77b4"/>
   </g>
   <g id="patch_22">
    <path d="M 153.750625 1120.645637 
L 162.556953 1120.645637 
L 162.556953 1128.815228 
L 153.750625 1128.815228 
z
" clip-path="url(#p0939e9a964)" style="fill: #1f77b4"/>
   </g>
   <g id="patch_23">
    <path d="M 153.750625 1175.109574 
L 159.685324 1175.109574 
L 159.685324 1183.279164 
L 153.750625 1183.279164 
z
" clip-path="url(#p0939e9a964)" style="fill: #1f77b4"/>
   </g>
   <g id="patch_24">
    <path d="M 153.750625 1229.57351 
L 159.685324 1229.57351 
L 159.685324 1237.7431 
L 153.750625 1237.7431 
z
" clip-path="url(#p0939e9a964)" style="fill: #1f77b4"/>
   </g>
   <g id="patch_25">
    <path d="M 153.750625 1284.037446 
L 153.750625 1284.037446 
L 153.750625 1292.207036 
L 153.750625 1292.207036 
z
" clip-path="url(#p0939e9a964)" style="fill: #1f77b4"/>
   </g>
   <g id="patch_26">
    <path d="M 153.750625 94.000443 
L 636.758578 94.000443 
L 636.758578 102.170033 
L 153.750625 102.170033 
z
" clip-path="url(#p0939e9a964)" style="fill: #ff7f0e"/>
   </g>
   <g id="patch_27">
    <path d="M 153.750625 148.464379 
L 492.411374 148.464379 
L 492.411374 156.633969 
L 153.750625 156.633969 
z
" clip-path="url(#p0939e9a964)" style="fill: #ff7f0e"/>
   </g>
   <g id="patch_28">
    <path d="M 153.750625 202.928315 
L 409.995629 202.928315 
L 409.995629 211.097905 
L 153.750625 211.097905 
z
" clip-path="url(#p0939e9a964)" style="fill: #ff7f0e"/>
   </g>
   <g id="patch_29">
    <path d="M 153.750625 257.392251 
L 292.16313 257.392251 
L 292.16313 265.561841 
L 153.750625 265.561841 
z
" clip-path="url(#p0939e9a964)" style="fill: #ff7f0e"/>
   </g>
   <g id="patch_30">
    <path d="M 153.750625 311.856187 
L 289.19578 311.856187 
L 289.19578 320.025777 
L 153.750625 320.025777 
z
" clip-path="url(#p0939e9a964)" style="fill: #ff7f0e"/>
   </g>
   <g id="patch_31">
    <path d="M 153.750625 366.320123 
L 265.648425 366.320123 
L 265.648425 374.489713 
L 153.750625 374.489713 
z
" clip-path="url(#p0939e9a964)" style="fill: #ff7f0e"/>
   </g>
   <g id="patch_32">
    <path d="M 153.750625 420.784059 
L 218.553713 420.784059 
L 218.553713 428.953649 
L 153.750625 428.953649 
z
" clip-path="url(#p0939e9a964)" style="fill: #ff7f0e"/>
   </g>
   <g id="patch_33">
    <path d="M 153.750625 475.247995 
L 239.133719 475.247995 
L 239.133719 483.417586 
L 153.750625 483.417586 
z
" clip-path="url(#p0939e9a964)" style="fill: #ff7f0e"/>
   </g>
   <g id="patch_34">
    <path d="M 153.750625 529.711931 
L 209.747385 529.711931 
L 209.747385 537.881522 
L 153.750625 537.881522 
z
" clip-path="url(#p0939e9a964)" style="fill: #ff7f0e"/>
   </g>
   <g id="patch_35">
    <path d="M 153.750625 584.175867 
L 195.006358 584.175867 
L 195.006358 592.345458 
L 153.750625 592.345458 
z
" clip-path="url(#p0939e9a964)" style="fill: #ff7f0e"/>
   </g>
   <g id="patch_36">
    <path d="M 153.750625 638.639803 
L 200.845336 638.639803 
L 200.845336 646.809394 
L 153.750625 646.809394 
z
" clip-path="url(#p0939e9a964)" style="fill: #ff7f0e"/>
   </g>
   <g id="patch_37">
    <path d="M 153.750625 693.103739 
L 174.330631 693.103739 
L 174.330631 701.27333 
L 153.750625 701.27333 
z
" clip-path="url(#p0939e9a964)" style="fill: #ff7f0e"/>
   </g>
   <g id="patch_38">
    <path d="M 153.750625 747.567675 
L 177.297981 747.567675 
L 177.297981 755.737266 
L 153.750625 755.737266 
z
" clip-path="url(#p0939e9a964)" style="fill: #ff7f0e"/>
   </g>
   <g id="patch_39">
    <path d="M 153.750625 802.031612 
L 177.297981 802.031612 
L 177.297981 810.201202 
L 153.750625 810.201202 
z
" clip-path="url(#p0939e9a964)" style="fill: #ff7f0e"/>
   </g>
   <g id="patch_40">
    <path d="M 153.750625 856.495548 
L 165.524303 856.495548 
L 165.524303 864.665138 
L 153.750625 864.665138 
z
" clip-path="url(#p0939e9a964)" style="fill: #ff7f0e"/>
   </g>
   <g id="patch_41">
    <path d="M 153.750625 910.959484 
L 165.524303 910.959484 
L 165.524303 919.129074 
L 153.750625 919.129074 
z
" clip-path="url(#p0939e9a964)" style="fill: #ff7f0e"/>
   </g>
   <g id="patch_42">
    <path d="M 153.750625 965.42342 
L 165.524303 965.42342 
L 165.524303 973.59301 
L 153.750625 973.59301 
z
" clip-path="url(#p0939e9a964)" style="fill: #ff7f0e"/>
   </g>
   <g id="patch_43">
    <path d="M 153.750625 1019.887356 
L 165.524303 1019.887356 
L 165.524303 1028.056946 
L 153.750625 1028.056946 
z
" clip-path="url(#p0939e9a964)" style="fill: #ff7f0e"/>
   </g>
   <g id="patch_44">
    <path d="M 153.750625 1074.351292 
L 159.685324 1074.351292 
L 159.685324 1082.520882 
L 153.750625 1082.520882 
z
" clip-path="url(#p0939e9a964)" style="fill: #ff7f0e"/>
   </g>
   <g id="patch_45">
    <path d="M 153.750625 1128.815228 
L 165.524303 1128.815228 
L 165.524303 1136.984818 
L 153.750625 1136.984818 
z
" clip-path="url(#p0939e9a964)" style="fill: #ff7f0e"/>
   </g>
   <g id="patch_46">
    <path d="M 153.750625 1183.279164 
L 159.685324 1183.279164 
L 159.685324 1191.448754 
L 153.750625 1191.448754 
z
" clip-path="url(#p0939e9a964)" style="fill: #ff7f0e"/>
   </g>
   <g id="patch_47">
    <path d="M 153.750625 1237.7431 
L 153.750625 1237.7431 
L 153.750625 1245.91269 
L 153.750625 1245.91269 
z
" clip-path="url(#p0939e9a964)" style="fill: #ff7f0e"/>
   </g>
   <g id="patch_48">
    <path d="M 153.750625 1292.207036 
L 159.685324 1292.207036 
L 159.685324 1300.376626 
L 153.750625 1300.376626 
z
" clip-path="url(#p0939e9a964)" style="fill: #ff7f0e"/>
   </g>
   <g id="patch_49">
    <path d="M 153.750625 102.170033 
L 577.890189 102.170033 
L 577.890189 110.339624 
L 153.750625 110.339624 
z
" clip-path="url(#p0939e9a964)" style="fill: #2ca02c"/>
   </g>
   <g id="patch_50">
    <path d="M 153.750625 156.633969 
L 551.375483 156.633969 
L 551.375483 164.80356 
L 153.750625 164.80356 
z
" clip-path="url(#p0939e9a964)" style="fill: #2ca02c"/>
   </g>
   <g id="patch_51">
    <path d="M 153.750625 211.097905 
L 445.316662 211.097905 
L 445.316662 219.267496 
L 153.750625 219.267496 
z
" clip-path="url(#p0939e9a964)" style="fill: #2ca02c"/>
   </g>
   <g id="patch_52">
    <path d="M 153.750625 265.561841 
L 321.645185 265.561841 
L 321.645185 273.731432 
L 153.750625 273.731432 
z
" clip-path="url(#p0939e9a964)" style="fill: #2ca02c"/>
   </g>
   <g id="patch_53">
    <path d="M 153.750625 320.025777 
L 253.874747 320.025777 
L 253.874747 328.195368 
L 153.750625 328.195368 
z
" clip-path="url(#p0939e9a964)" style="fill: #2ca02c"/>
   </g>
   <g id="patch_54">
    <path d="M 153.750625 374.489713 
L 242.101069 374.489713 
L 242.101069 382.659304 
L 153.750625 382.659304 
z
" clip-path="url(#p0939e9a964)" style="fill: #2ca02c"/>
   </g>
   <g id="patch_55">
    <path d="M 153.750625 428.953649 
L 218.553713 428.953649 
L 218.553713 437.12324 
L 153.750625 437.12324 
z
" clip-path="url(#p0939e9a964)" style="fill: #2ca02c"/>
   </g>
   <g id="patch_56">
    <path d="M 153.750625 483.417586 
L 227.360042 483.417586 
L 227.360042 491.587176 
L 153.750625 491.587176 
z
" clip-path="url(#p0939e9a964)" style="fill: #2ca02c"/>
   </g>
   <g id="patch_57">
    <path d="M 153.750625 537.881522 
L 197.973707 537.881522 
L 197.973707 546.051112 
L 153.750625 546.051112 
z
" clip-path="url(#p0939e9a964)" style="fill: #2ca02c"/>
   </g>
   <g id="patch_58">
    <path d="M 153.750625 592.345458 
L 200.845336 592.345458 
L 200.845336 600.515048 
L 153.750625 600.515048 
z
" clip-path="url(#p0939e9a964)" style="fill: #2ca02c"/>
   </g>
   <g id="patch_59">
    <path d="M 153.750625 646.809394 
L 192.039008 646.809394 
L 192.039008 654.978984 
L 153.750625 654.978984 
z
" clip-path="url(#p0939e9a964)" style="fill: #2ca02c"/>
   </g>
   <g id="patch_60">
    <path d="M 153.750625 701.27333 
L 177.297981 701.27333 
L 177.297981 709.44292 
L 153.750625 709.44292 
z
" clip-path="url(#p0939e9a964)" style="fill: #2ca02c"/>
   </g>
   <g id="patch_61">
    <path d="M 153.750625 755.737266 
L 177.297981 755.737266 
L 177.297981 763.906856 
L 153.750625 763.906856 
z
" clip-path="url(#p0939e9a964)" style="fill: #2ca02c"/>
   </g>
   <g id="patch_62">
    <path d="M 153.750625 810.201202 
L 183.23268 810.201202 
L 183.23268 818.370792 
L 153.750625 818.370792 
z
" clip-path="url(#p0939e9a964)" style="fill: #2ca02c"/>
   </g>
   <g id="patch_63">
    <path d="M 153.750625 864.665138 
L 171.459002 864.665138 
L 171.459002 872.834728 
L 153.750625 872.834728 
z
" clip-path="url(#p0939e9a964)" style="fill: #2ca02c"/>
   </g>
   <g id="patch_64">
    <path d="M 153.750625 919.129074 
L 156.717975 919.129074 
L 156.717975 927.298664 
L 153.750625 927.298664 
z
" clip-path="url(#p0939e9a964)" style="fill: #2ca02c"/>
   </g>
   <g id="patch_65">
    <path d="M 153.750625 973.59301 
L 171.459002 973.59301 
L 171.459002 981.762601 
L 153.750625 981.762601 
z
" clip-path="url(#p0939e9a964)" style="fill: #2ca02c"/>
   </g>
   <g id="patch_66">
    <path d="M 153.750625 1028.056946 
L 165.524303 1028.056946 
L 165.524303 1036.226537 
L 153.750625 1036.226537 
z
" clip-path="url(#p0939e9a964)" style="fill: #2ca02c"/>
   </g>
   <g id="patch_67">
    <path d="M 153.750625 1082.520882 
L 165.524303 1082.520882 
L 165.524303 1090.690473 
L 153.750625 1090.690473 
z
" clip-path="url(#p0939e9a964)" style="fill: #2ca02c"/>
   </g>
   <g id="patch_68">
    <path d="M 153.750625 1136.984818 
L 162.556953 1136.984818 
L 162.556953 1145.154409 
L 153.750625 1145.154409 
z
" clip-path="url(#p0939e9a964)" style="fill: #2ca02c"/>
   </g>
   <g id="patch_69">
    <path d="M 153.750625 1191.448754 
L 153.750625 1191.448754 
L 153.750625 1199.618345 
L 153.750625 1199.618345 
z
" clip-path="url(#p0939e9a964)" style="fill: #2ca02c"/>
   </g>
   <g id="patch_70">
    <path d="M 153.750625 1245.91269 
L 159.685324 1245.91269 
L 159.685324 1254.082281 
L 153.750625 1254.082281 
z
" clip-path="url(#p0939e9a964)" style="fill: #2ca02c"/>
   </g>
   <g id="patch_71">
    <path d="M 153.750625 1300.376626 
L 159.685324 1300.376626 
L 159.685324 1308.546217 
L 153.750625 1308.546217 
z
" clip-path="url(#p0939e9a964)" style="fill: #2ca02c"/>
   </g>
   <g id="patch_72">
    <path d="M 153.750625 110.339624 
L 501.313423 110.339624 
L 501.313423 118.509214 
L 153.750625 118.509214 
z
" clip-path="url(#p0939e9a964)" style="fill: #d62728"/>
   </g>
   <g id="patch_73">
    <path d="M 153.750625 164.80356 
L 436.510334 164.80356 
L 436.510334 172.97315 
L 153.750625 172.97315 
z
" clip-path="url(#p0939e9a964)" style="fill: #d62728"/>
   </g>
   <g id="patch_74">
    <path d="M 153.750625 219.267496 
L 510.119751 219.267496 
L 510.119751 227.437086 
L 153.750625 227.437086 
z
" clip-path="url(#p0939e9a964)" style="fill: #d62728"/>
   </g>
   <g id="patch_75">
    <path d="M 153.750625 273.731432 
L 300.969458 273.731432 
L 300.969458 281.901022 
L 153.750625 281.901022 
z
" clip-path="url(#p0939e9a964)" style="fill: #d62728"/>
   </g>
   <g id="patch_76">
    <path d="M 153.750625 328.195368 
L 300.969458 328.195368 
L 300.969458 336.364958 
L 153.750625 336.364958 
z
" clip-path="url(#p0939e9a964)" style="fill: #d62728"/>
   </g>
   <g id="patch_77">
    <path d="M 153.750625 382.659304 
L 259.809446 382.659304 
L 259.809446 390.828894 
L 153.750625 390.828894 
z
" clip-path="url(#p0939e9a964)" style="fill: #d62728"/>
   </g>
   <g id="patch_78">
    <path d="M 153.750625 437.12324 
L 242.101069 437.12324 
L 242.101069 445.29283 
L 153.750625 445.29283 
z
" clip-path="url(#p0939e9a964)" style="fill: #d62728"/>
   </g>
   <g id="patch_79">
    <path d="M 153.750625 491.587176 
L 206.780036 491.587176 
L 206.780036 499.756766 
L 153.750625 499.756766 
z
" clip-path="url(#p0939e9a964)" style="fill: #d62728"/>
   </g>
   <g id="patch_80">
    <path d="M 153.750625 546.051112 
L 230.327391 546.051112 
L 230.327391 554.220702 
L 153.750625 554.220702 
z
" clip-path="url(#p0939e9a964)" style="fill: #d62728"/>
   </g>
   <g id="patch_81">
    <path d="M 153.750625 600.515048 
L 209.747385 600.515048 
L 209.747385 608.684638 
L 153.750625 608.684638 
z
" clip-path="url(#p0939e9a964)" style="fill: #d62728"/>
   </g>
   <g id="patch_82">
    <path d="M 153.750625 654.978984 
L 195.006358 654.978984 
L 195.006358 663.148575 
L 153.750625 663.148575 
z
" clip-path="url(#p0939e9a964)" style="fill: #d62728"/>
   </g>
   <g id="patch_83">
    <path d="M 153.750625 709.44292 
L 192.039008 709.44292 
L 192.039008 717.612511 
L 153.750625 717.612511 
z
" clip-path="url(#p0939e9a964)" style="fill: #d62728"/>
   </g>
   <g id="patch_84">
    <path d="M 153.750625 763.906856 
L 174.330631 763.906856 
L 174.330631 772.076447 
L 153.750625 772.076447 
z
" clip-path="url(#p0939e9a964)" style="fill: #d62728"/>
   </g>
   <g id="patch_85">
    <path d="M 153.750625 818.370792 
L 171.459002 818.370792 
L 171.459002 826.540383 
L 153.750625 826.540383 
z
" clip-path="url(#p0939e9a964)" style="fill: #d62728"/>
   </g>
   <g id="patch_86">
    <path d="M 153.750625 872.834728 
L 168.491652 872.834728 
L 168.491652 881.004319 
L 153.750625 881.004319 
z
" clip-path="url(#p0939e9a964)" style="fill: #d62728"/>
   </g>
   <g id="patch_87">
    <path d="M 153.750625 927.298664 
L 174.330631 927.298664 
L 174.330631 935.468255 
L 153.750625 935.468255 
z
" clip-path="url(#p0939e9a964)" style="fill: #d62728"/>
   </g>
   <g id="patch_88">
    <path d="M 153.750625 981.762601 
L 168.491652 981.762601 
L 168.491652 989.932191 
L 153.750625 989.932191 
z
" clip-path="url(#p0939e9a964)" style="fill: #d62728"/>
   </g>
   <g id="patch_89">
    <path d="M 153.750625 1036.226537 
L 165.524303 1036.226537 
L 165.524303 1044.396127 
L 153.750625 1044.396127 
z
" clip-path="url(#p0939e9a964)" style="fill: #d62728"/>
   </g>
   <g id="patch_90">
    <path d="M 153.750625 1090.690473 
L 171.459002 1090.690473 
L 171.459002 1098.860063 
L 153.750625 1098.860063 
z
" clip-path="url(#p0939e9a964)" style="fill: #d62728"/>
   </g>
   <g id="patch_91">
    <path d="M 153.750625 1145.154409 
L 159.685324 1145.154409 
L 159.685324 1153.323999 
L 153.750625 1153.323999 
z
" clip-path="url(#p0939e9a964)" style="fill: #d62728"/>
   </g>
   <g id="patch_92">
    <path d="M 153.750625 1199.618345 
L 162.556953 1199.618345 
L 162.556953 1207.787935 
L 153.750625 1207.787935 
z
" clip-path="url(#p0939e9a964)" style="fill: #d62728"/>
   </g>
   <g id="patch_93">
    <path d="M 153.750625 1254.082281 
L 162.556953 1254.082281 
L 162.556953 1262.251871 
L 153.750625 1262.251871 
z
" clip-path="url(#p0939e9a964)" style="fill: #d62728"/>
   </g>
   <g id="patch_94">
    <path d="M 153.750625 1308.546217 
L 156.717975 1308.546217 
L 156.717975 1316.715807 
L 153.750625 1316.715807 
z
" clip-path="url(#p0939e9a964)" style="fill: #d62728"/>
   </g>
   <g id="patch_95">
    <path d="M 153.750625 118.509214 
L 468.864018 118.509214 
L 468.864018 126.678804 
L 153.750625 126.678804 
z
" clip-path="url(#p0939e9a964)" style="fill: #9467bd"/>
   </g>
   <g id="patch_96">
    <path d="M 153.750625 172.97315 
L 371.707246 172.97315 
L 371.707246 181.14274 
L 153.750625 181.14274 
z
" clip-path="url(#p0939e9a964)" style="fill: #9467bd"/>
   </g>
   <g id="patch_97">
    <path d="M 153.750625 227.437086 
L 495.378723 227.437086 
L 495.378723 235.606676 
L 153.750625 235.606676 
z
" clip-path="url(#p0939e9a964)" style="fill: #9467bd"/>
   </g>
   <g id="patch_98">
    <path d="M 153.750625 281.901022 
L 348.15989 281.901022 
L 348.15989 290.070613 
L 153.750625 290.070613 
z
" clip-path="url(#p0939e9a964)" style="fill: #9467bd"/>
   </g>
   <g id="patch_99">
    <path d="M 153.750625 336.364958 
L 280.389452 336.364958 
L 280.389452 344.534549 
L 153.750625 344.534549 
z
" clip-path="url(#p0939e9a964)" style="fill: #9467bd"/>
   </g>
   <g id="patch_100">
    <path d="M 153.750625 390.828894 
L 274.550474 390.828894 
L 274.550474 398.998485 
L 153.750625 398.998485 
z
" clip-path="url(#p0939e9a964)" style="fill: #9467bd"/>
   </g>
   <g id="patch_101">
    <path d="M 153.750625 445.29283 
L 262.681075 445.29283 
L 262.681075 453.462421 
L 153.750625 453.462421 
z
" clip-path="url(#p0939e9a964)" style="fill: #9467bd"/>
   </g>
   <g id="patch_102">
    <path d="M 153.750625 499.756766 
L 224.392692 499.756766 
L 224.392692 507.926357 
L 153.750625 507.926357 
z
" clip-path="url(#p0939e9a964)" style="fill: #9467bd"/>
   </g>
   <g id="patch_103">
    <path d="M 153.750625 554.220702 
L 227.360042 554.220702 
L 227.360042 562.390293 
L 153.750625 562.390293 
z
" clip-path="url(#p0939e9a964)" style="fill: #9467bd"/>
   </g>
   <g id="patch_104">
    <path d="M 153.750625 608.684638 
L 250.907397 608.684638 
L 250.907397 616.854229 
L 153.750625 616.854229 
z
" clip-path="url(#p0939e9a964)" style="fill: #9467bd"/>
   </g>
   <g id="patch_105">
    <path d="M 153.750625 663.148575 
L 183.23268 663.148575 
L 183.23268 671.318165 
L 153.750625 671.318165 
z
" clip-path="url(#p0939e9a964)" style="fill: #9467bd"/>
   </g>
   <g id="patch_106">
    <path d="M 153.750625 717.612511 
L 189.071658 717.612511 
L 189.071658 725.782101 
L 153.750625 725.782101 
z
" clip-path="url(#p0939e9a964)" style="fill: #9467bd"/>
   </g>
   <g id="patch_107">
    <path d="M 153.750625 772.076447 
L 183.23268 772.076447 
L 183.23268 780.246037 
L 153.750625 780.246037 
z
" clip-path="url(#p0939e9a964)" style="fill: #9467bd"/>
   </g>
   <g id="patch_108">
    <path d="M 153.750625 826.540383 
L 177.297981 826.540383 
L 177.297981 834.709973 
L 153.750625 834.709973 
z
" clip-path="url(#p0939e9a964)" style="fill: #9467bd"/>
   </g>
   <g id="patch_109">
    <path d="M 153.750625 881.004319 
L 168.491652 881.004319 
L 168.491652 889.173909 
L 153.750625 889.173909 
z
" clip-path="url(#p0939e9a964)" style="fill: #9467bd"/>
   </g>
   <g id="patch_110">
    <path d="M 153.750625 935.468255 
L 177.297981 935.468255 
L 177.297981 943.637845 
L 153.750625 943.637845 
z
" clip-path="url(#p0939e9a964)" style="fill: #9467bd"/>
   </g>
   <g id="patch_111">
    <path d="M 153.750625 989.932191 
L 165.524303 989.932191 
L 165.524303 998.101781 
L 153.750625 998.101781 
z
" clip-path="url(#p0939e9a964)" style="fill: #9467bd"/>
   </g>
   <g id="patch_112">
    <path d="M 153.750625 1044.396127 
L 162.556953 1044.396127 
L 162.556953 1052.565717 
L 153.750625 1052.565717 
z
" clip-path="url(#p0939e9a964)" style="fill: #9467bd"/>
   </g>
   <g id="patch_113">
    <path d="M 153.750625 1098.860063 
L 162.556953 1098.860063 
L 162.556953 1107.029653 
L 153.750625 1107.029653 
z
" clip-path="url(#p0939e9a964)" style="fill: #9467bd"/>
   </g>
   <g id="patch_114">
    <path d="M 153.750625 1153.323999 
L 159.685324 1153.323999 
L 159.685324 1161.49359 
L 153.750625 1161.49359 
z
" clip-path="url(#p0939e9a964)" style="fill: #9467bd"/>
   </g>
   <g id="patch_115">
    <path d="M 153.750625 1207.787935 
L 162.556953 1207.787935 
L 162.556953 1215.957526 
L 153.750625 1215.957526 
z
" clip-path="url(#p0939e9a964)" style="fill: #9467bd"/>
   </g>
   <g id="patch_116">
    <path d="M 153.750625 1262.251871 
L 159.685324 1262.251871 
L 159.685324 1270.421462 
L 153.750625 1270.421462 
z
" clip-path="url(#p0939e9a964)" style="fill: #9467bd"/>
   </g>
   <g id="patch_117">
    <path d="M 153.750625 1316.715807 
L 159.685324 1316.715807 
L 159.685324 1324.885398 
L 153.750625 1324.885398 
z
" clip-path="url(#p0939e9a964)" style="fill: #9467bd"/>
   </g>
   <g id="matplotlib.axis_1">
    <g id="xtick_1">
     <g id="line2d_1">
      <path d="M 153.750625 1386.838125 
L 153.750625 23.878125 
" clip-path="url(#p0939e9a964)" style="fill: none; stroke-dasharray: 2.96,1.28; stroke-dashoffset: 0; stroke: #b0b0b0; stroke-opacity: 0.6; stroke-width: 0.8"/>
     </g>
     <g id="line2d_2">
      <defs>
       <path id="m8b6f912329" d="M 0 0 
L 0 3.5 
" style="stroke: #000000; stroke-width: 0.8"/>
      </defs>
      <g>
       <use xlink:href="#m8b6f912329" x="153.750625" y="1386.838125" style="stroke: #000000; stroke-width: 0.8"/>
      </g>
     </g>
     <g id="line2d_3">
      <defs>
       <path id="m491706f8cd" d="M 0 0 
L 0 -3.5 
" style="stroke: #000000; stroke-width: 0.8"/>
      </defs>
      <g>
       <use xlink:href="#m491706f8cd" x="153.750625" y="23.878125" style="stroke: #000000; stroke-width: 0.8"/>
      </g>
     </g>
     <g id="text_1">
      <!-- 0 -->
      <g transform="translate(150.569375 1401.436563) scale(0.1 -0.1)">
       <defs>
        <path id="DejaVuSans-30" d="M 2034 4250 
Q 1547 4250 1301 3770 
Q 1056 3291 1056 2328 
Q 1056 1369 1301 889 
Q 1547 409 2034 409 
Q 2525 409 2770 889 
Q 3016 1369 3016 2328 
Q 3016 3291 2770 3770 
Q 2525 4250 2034 4250 
z
M 2034 4750 
Q 2819 4750 3233 4129 
Q 3647 3509 3647 2328 
Q 3647 1150 3233 529 
Q 2819 -91 2034 -91 
Q 1250 -91 836 529 
Q 422 1150 422 2328 
Q 422 3509 836 4129 
Q 1250 4750 2034 4750 
z
" transform="scale(0.015625)"/>
       </defs>
       <use xlink:href="#DejaVuSans-30"/>
      </g>
     </g>
     <g id="text_2">
      <!-- 0 -->
      <g transform="translate(150.569375 14.798437) scale(0.1 -0.1)">
       <use xlink:href="#DejaVuSans-30"/>
      </g>
     </g>
    </g>
    <g id="xtick_2">
     <g id="line2d_4">
      <path d="M 249.471583 1386.838125 
L 249.471583 23.878125 
" clip-path="url(#p0939e9a964)" style="fill: none; stroke-dasharray: 2.96,1.28; stroke-dashoffset: 0; stroke: #b0b0b0; stroke-opacity: 0.6; stroke-width: 0.8"/>
     </g>
     <g id="line2d_5">
      <g>
       <use xlink:href="#m8b6f912329" x="249.471583" y="1386.838125" style="stroke: #000000; stroke-width: 0.8"/>
      </g>
     </g>
     <g id="line2d_6">
      <g>
       <use xlink:href="#m491706f8cd" x="249.471583" y="23.878125" style="stroke: #000000; stroke-width: 0.8"/>
      </g>
     </g>
     <g id="text_3">
      <!-- 10 -->
      <g transform="translate(243.109083 1401.436563) scale(0.1 -0.1)">
       <defs>
        <path id="DejaVuSans-31" d="M 794 531 
L 1825 531 
L 1825 4091 
L 703 3866 
L 703 4441 
L 1819 4666 
L 2450 4666 
L 2450 531 
L 3481 531 
L 3481 0 
L 794 0 
L 794 531 
z
" transform="scale(0.015625)"/>
       </defs>
       <use xlink:href="#DejaVuSans-31"/>
       <use xlink:href="#DejaVuSans-30" transform="translate(63.623047 0)"/>
      </g>
     </g>
     <g id="text_4">
      <!-- 10 -->
      <g transform="translate(243.109083 14.798437) scale(0.1 -0.1)">
       <use xlink:href="#DejaVuSans-31"/>
       <use xlink:href="#DejaVuSans-30" transform="translate(63.623047 0)"/>
      </g>
     </g>
    </g>
    <g id="xtick_3">
     <g id="line2d_7">
      <path d="M 345.19254 1386.838125 
L 345.19254 23.878125 
" clip-path="url(#p0939e9a964)" style="fill: none; stroke-dasharray: 2.96,1.28; stroke-dashoffset: 0; stroke: #b0b0b0; stroke-opacity: 0.6; stroke-width: 0.8"/>
     </g>
     <g id="line2d_8">
      <g>
       <use xlink:href="#m8b6f912329" x="345.19254" y="1386.838125" style="stroke: #000000; stroke-width: 0.8"/>
      </g>
     </g>
     <g id="line2d_9">
      <g>
       <use xlink:href="#m491706f8cd" x="345.19254" y="23.878125" style="stroke: #000000; stroke-width: 0.8"/>
      </g>
     </g>
     <g id="text_5">
      <!-- 20 -->
      <g transform="translate(338.83004 1401.436563) scale(0.1 -0.1)">
       <defs>
        <path id="DejaVuSans-32" d="M 1228 531 
L 3431 531 
L 3431 0 
L 469 0 
L 469 531 
Q 828 903 1448 1529 
Q 2069 2156 2228 2338 
Q 2531 2678 2651 2914 
Q 2772 3150 2772 3378 
Q 2772 3750 2511 3984 
Q 2250 4219 1831 4219 
Q 1534 4219 1204 4116 
Q 875 4013 500 3803 
L 500 4441 
Q 881 4594 1212 4672 
Q 1544 4750 1819 4750 
Q 2544 4750 2975 4387 
Q 3406 4025 3406 3419 
Q 3406 3131 3298 2873 
Q 3191 2616 2906 2266 
Q 2828 2175 2409 1742 
Q 1991 1309 1228 531 
z
" transform="scale(0.015625)"/>
       </defs>
       <use xlink:href="#DejaVuSans-32"/>
       <use xlink:href="#DejaVuSans-30" transform="translate(63.623047 0)"/>
      </g>
     </g>
     <g id="text_6">
      <!-- 20 -->
      <g transform="translate(338.83004 14.798437) scale(0.1 -0.1)">
       <use xlink:href="#DejaVuSans-32"/>
       <use xlink:href="#DejaVuSans-30" transform="translate(63.623047 0)"/>
      </g>
     </g>
    </g>
    <g id="xtick_4">
     <g id="line2d_10">
      <path d="M 440.913498 1386.838125 
L 440.913498 23.878125 
" clip-path="url(#p0939e9a964)" style="fill: none; stroke-dasharray: 2.96,1.28; stroke-dashoffset: 0; stroke: #b0b0b0; stroke-opacity: 0.6; stroke-width: 0.8"/>
     </g>
     <g id="line2d_11">
      <g>
       <use xlink:href="#m8b6f912329" x="440.913498" y="1386.838125" style="stroke: #000000; stroke-width: 0.8"/>
      </g>
     </g>
     <g id="line2d_12">
      <g>
       <use xlink:href="#m491706f8cd" x="440.913498" y="23.878125" style="stroke: #000000; stroke-width: 0.8"/>
      </g>
     </g>
     <g id="text_7">
      <!-- 30 -->
      <g transform="translate(434.550998 1401.436563) scale(0.1 -0.1)">
       <defs>
        <path id="DejaVuSans-33" d="M 2597 2516 
Q 3050 2419 3304 2112 
Q 3559 1806 3559 1356 
Q 3559 666 3084 287 
Q 2609 -91 1734 -91 
Q 1441 -91 1130 -33 
Q 819 25 488 141 
L 488 750 
Q 750 597 1062 519 
Q 1375 441 1716 441 
Q 2309 441 2620 675 
Q 2931 909 2931 1356 
Q 2931 1769 2642 2001 
Q 2353 2234 1838 2234 
L 1294 2234 
L 1294 2753 
L 1863 2753 
Q 2328 2753 2575 2939 
Q 2822 3125 2822 3475 
Q 2822 3834 2567 4026 
Q 2313 4219 1838 4219 
Q 1578 4219 1281 4162 
Q 984 4106 628 3988 
L 628 4550 
Q 988 4650 1302 4700 
Q 1616 4750 1894 4750 
Q 2613 4750 3031 4423 
Q 3450 4097 3450 3541 
Q 3450 3153 3228 2886 
Q 3006 2619 2597 2516 
z
" transform="scale(0.015625)"/>
       </defs>
       <use xlink:href="#DejaVuSans-33"/>
       <use xlink:href="#DejaVuSans-30" transform="translate(63.623047 0)"/>
      </g>
     </g>
     <g id="text_8">
      <!-- 30 -->
      <g transform="translate(434.550998 14.798437) scale(0.1 -0.1)">
       <use xlink:href="#DejaVuSans-33"/>
       <use xlink:href="#DejaVuSans-30" transform="translate(63.623047 0)"/>
      </g>
     </g>
    </g>
    <g id="xtick_5">
     <g id="line2d_13">
      <path d="M 536.634456 1386.838125 
L 536.634456 23.878125 
" clip-path="url(#p0939e9a964)" style="fill: none; stroke-dasharray: 2.96,1.28; stroke-dashoffset: 0; stroke: #b0b0b0; stroke-opacity: 0.6; stroke-width: 0.8"/>
     </g>
     <g id="line2d_14">
      <g>
       <use xlink:href="#m8b6f912329" x="536.634456" y="1386.838125" style="stroke: #000000; stroke-width: 0.8"/>
      </g>
     </g>
     <g id="line2d_15">
      <g>
       <use xlink:href="#m491706f8cd" x="536.634456" y="23.878125" style="stroke: #000000; stroke-width: 0.8"/>
      </g>
     </g>
     <g id="text_9">
      <!-- 40 -->
      <g transform="translate(530.271956 1401.436563) scale(0.1 -0.1)">
       <defs>
        <path id="DejaVuSans-34" d="M 2419 4116 
L 825 1625 
L 2419 1625 
L 2419 4116 
z
M 2253 4666 
L 3047 4666 
L 3047 1625 
L 3713 1625 
L 3713 1100 
L 3047 1100 
L 3047 0 
L 2419 0 
L 2419 1100 
L 313 1100 
L 313 1709 
L 2253 4666 
z
" transform="scale(0.015625)"/>
       </defs>
       <use xlink:href="#DejaVuSans-34"/>
       <use xlink:href="#DejaVuSans-30" transform="translate(63.623047 0)"/>
      </g>
     </g>
     <g id="text_10">
      <!-- 40 -->
      <g transform="translate(530.271956 14.798437) scale(0.1 -0.1)">
       <use xlink:href="#DejaVuSans-34"/>
       <use xlink:href="#DejaVuSans-30" transform="translate(63.623047 0)"/>
      </g>
     </g>
    </g>
    <g id="xtick_6">
     <g id="line2d_16">
      <path d="M 632.355414 1386.838125 
L 632.355414 23.878125 
" clip-path="url(#p0939e9a964)" style="fill: none; stroke-dasharray: 2.96,1.28; stroke-dashoffset: 0; stroke: #b0b0b0; stroke-opacity: 0.6; stroke-width: 0.8"/>
     </g>
     <g id="line2d_17">
      <g>
       <use xlink:href="#m8b6f912329" x="632.355414" y="1386.838125" style="stroke: #000000; stroke-width: 0.8"/>
      </g>
     </g>
     <g id="line2d_18">
      <g>
       <use xlink:href="#m491706f8cd" x="632.355414" y="23.878125" style="stroke: #000000; stroke-width: 0.8"/>
      </g>
     </g>
     <g id="text_11">
      <!-- 50 -->
      <g transform="translate(625.992914 1401.436563) scale(0.1 -0.1)">
       <defs>
        <path id="DejaVuSans-35" d="M 691 4666 
L 3169 4666 
L 3169 4134 
L 1269 4134 
L 1269 2991 
Q 1406 3038 1543 3061 
Q 1681 3084 1819 3084 
Q 2600 3084 3056 2656 
Q 3513 2228 3513 1497 
Q 3513 744 3044 326 
Q 2575 -91 1722 -91 
Q 1428 -91 1123 -41 
Q 819 9 494 109 
L 494 744 
Q 775 591 1075 516 
Q 1375 441 1709 441 
Q 2250 441 2565 725 
Q 2881 1009 2881 1497 
Q 2881 1984 2565 2268 
Q 2250 2553 1709 2553 
Q 1456 2553 1204 2497 
Q 953 2441 691 2322 
L 691 4666 
z
" transform="scale(0.015625)"/>
       </defs>
       <use xlink:href="#DejaVuSans-35"/>
       <use xlink:href="#DejaVuSans-30" transform="translate(63.623047 0)"/>
      </g>
     </g>
     <g id="text_12">
      <!-- 50 -->
      <g transform="translate(625.992914 14.798437) scale(0.1 -0.1)">
       <use xlink:href="#DejaVuSans-35"/>
       <use xlink:href="#DejaVuSans-30" transform="translate(63.623047 0)"/>
      </g>
     </g>
    </g>
    <g id="xtick_7">
     <g id="line2d_19">
      <path d="M 728.076371 1386.838125 
L 728.076371 23.878125 
" clip-path="url(#p0939e9a964)" style="fill: none; stroke-dasharray: 2.96,1.28; stroke-dashoffset: 0; stroke: #b0b0b0; stroke-opacity: 0.6; stroke-width: 0.8"/>
     </g>
     <g id="line2d_20">
      <g>
       <use xlink:href="#m8b6f912329" x="728.076371" y="1386.838125" style="stroke: #000000; stroke-width: 0.8"/>
      </g>
     </g>
     <g id="line2d_21">
      <g>
       <use xlink:href="#m491706f8cd" x="728.076371" y="23.878125" style="stroke: #000000; stroke-width: 0.8"/>
      </g>
     </g>
     <g id="text_13">
      <!-- 60 -->
      <g transform="translate(721.713871 1401.436563) scale(0.1 -0.1)">
       <defs>
        <path id="DejaVuSans-36" d="M 2113 2584 
Q 1688 2584 1439 2293 
Q 1191 2003 1191 1497 
Q 1191 994 1439 701 
Q 1688 409 2113 409 
Q 2538 409 2786 701 
Q 3034 994 3034 1497 
Q 3034 2003 2786 2293 
Q 2538 2584 2113 2584 
z
M 3366 4563 
L 3366 3988 
Q 3128 4100 2886 4159 
Q 2644 4219 2406 4219 
Q 1781 4219 1451 3797 
Q 1122 3375 1075 2522 
Q 1259 2794 1537 2939 
Q 1816 3084 2150 3084 
Q 2853 3084 3261 2657 
Q 3669 2231 3669 1497 
Q 3669 778 3244 343 
Q 2819 -91 2113 -91 
Q 1303 -91 875 529 
Q 447 1150 447 2328 
Q 447 3434 972 4092 
Q 1497 4750 2381 4750 
Q 2619 4750 2861 4703 
Q 3103 4656 3366 4563 
z
" transform="scale(0.015625)"/>
       </defs>
       <use xlink:href="#DejaVuSans-36"/>
       <use xlink:href="#DejaVuSans-30" transform="translate(63.623047 0)"/>
      </g>
     </g>
     <g id="text_14">
      <!-- 60 -->
      <g transform="translate(721.713871 14.798437) scale(0.1 -0.1)">
       <use xlink:href="#DejaVuSans-36"/>
       <use xlink:href="#DejaVuSans-30" transform="translate(63.623047 0)"/>
      </g>
     </g>
    </g>
    <g id="xtick_8">
     <g id="line2d_22">
      <path d="M 823.797329 1386.838125 
L 823.797329 23.878125 
" clip-path="url(#p0939e9a964)" style="fill: none; stroke-dasharray: 2.96,1.28; stroke-dashoffset: 0; stroke: #b0b0b0; stroke-opacity: 0.6; stroke-width: 0.8"/>
     </g>
     <g id="line2d_23">
      <g>
       <use xlink:href="#m8b6f912329" x="823.797329" y="1386.838125" style="stroke: #000000; stroke-width: 0.8"/>
      </g>
     </g>
     <g id="line2d_24">
      <g>
       <use xlink:href="#m491706f8cd" x="823.797329" y="23.878125" style="stroke: #000000; stroke-width: 0.8"/>
      </g>
     </g>
     <g id="text_15">
      <!-- 70 -->
      <g transform="translate(817.434829 1401.436563) scale(0.1 -0.1)">
       <defs>
        <path id="DejaVuSans-37" d="M 525 4666 
L 3525 4666 
L 3525 4397 
L 1831 0 
L 1172 0 
L 2766 4134 
L 525 4134 
L 525 4666 
z
" transform="scale(0.015625)"/>
       </defs>
       <use xlink:href="#DejaVuSans-37"/>
       <use xlink:href="#DejaVuSans-30" transform="translate(63.623047 0)"/>
      </g>
     </g>
     <g id="text_16">
      <!-- 70 -->
      <g transform="translate(817.434829 14.798437) scale(0.1 -0.1)">
       <use xlink:href="#DejaVuSans-37"/>
       <use xlink:href="#DejaVuSans-30" transform="translate(63.623047 0)"/>
      </g>
     </g>
    </g>
    <g id="text_17">
     <!-- Percentage of Communities (%) -->
     <g transform="translate(358.717344 1421.193438) scale(0.18 -0.18)">
      <defs>
       <path id="DejaVuSans-50" d="M 1259 4147 
L 1259 2394 
L 2053 2394 
Q 2494 2394 2734 2622 
Q 2975 2850 2975 3272 
Q 2975 3691 2734 3919 
Q 2494 4147 2053 4147 
L 1259 4147 
z
M 628 4666 
L 2053 4666 
Q 2838 4666 3239 4311 
Q 3641 3956 3641 3272 
Q 3641 2581 3239 2228 
Q 2838 1875 2053 1875 
L 1259 1875 
L 1259 0 
L 628 0 
L 628 4666 
z
" transform="scale(0.015625)"/>
       <path id="DejaVuSans-65" d="M 3597 1894 
L 3597 1613 
L 953 1613 
Q 991 1019 1311 708 
Q 1631 397 2203 397 
Q 2534 397 2845 478 
Q 3156 559 3463 722 
L 3463 178 
Q 3153 47 2828 -22 
Q 2503 -91 2169 -91 
Q 1331 -91 842 396 
Q 353 884 353 1716 
Q 353 2575 817 3079 
Q 1281 3584 2069 3584 
Q 2775 3584 3186 3129 
Q 3597 2675 3597 1894 
z
M 3022 2063 
Q 3016 2534 2758 2815 
Q 2500 3097 2075 3097 
Q 1594 3097 1305 2825 
Q 1016 2553 972 2059 
L 3022 2063 
z
" transform="scale(0.015625)"/>
       <path id="DejaVuSans-72" d="M 2631 2963 
Q 2534 3019 2420 3045 
Q 2306 3072 2169 3072 
Q 1681 3072 1420 2755 
Q 1159 2438 1159 1844 
L 1159 0 
L 581 0 
L 581 3500 
L 1159 3500 
L 1159 2956 
Q 1341 3275 1631 3429 
Q 1922 3584 2338 3584 
Q 2397 3584 2469 3576 
Q 2541 3569 2628 3553 
L 2631 2963 
z
" transform="scale(0.015625)"/>
       <path id="DejaVuSans-63" d="M 3122 3366 
L 3122 2828 
Q 2878 2963 2633 3030 
Q 2388 3097 2138 3097 
Q 1578 3097 1268 2742 
Q 959 2388 959 1747 
Q 959 1106 1268 751 
Q 1578 397 2138 397 
Q 2388 397 2633 464 
Q 2878 531 3122 666 
L 3122 134 
Q 2881 22 2623 -34 
Q 2366 -91 2075 -91 
Q 1284 -91 818 406 
Q 353 903 353 1747 
Q 353 2603 823 3093 
Q 1294 3584 2113 3584 
Q 2378 3584 2631 3529 
Q 2884 3475 3122 3366 
z
" transform="scale(0.015625)"/>
       <path id="DejaVuSans-6e" d="M 3513 2113 
L 3513 0 
L 2938 0 
L 2938 2094 
Q 2938 2591 2744 2837 
Q 2550 3084 2163 3084 
Q 1697 3084 1428 2787 
Q 1159 2491 1159 1978 
L 1159 0 
L 581 0 
L 581 3500 
L 1159 3500 
L 1159 2956 
Q 1366 3272 1645 3428 
Q 1925 3584 2291 3584 
Q 2894 3584 3203 3211 
Q 3513 2838 3513 2113 
z
" transform="scale(0.015625)"/>
       <path id="DejaVuSans-74" d="M 1172 4494 
L 1172 3500 
L 2356 3500 
L 2356 3053 
L 1172 3053 
L 1172 1153 
Q 1172 725 1289 603 
Q 1406 481 1766 481 
L 2356 481 
L 2356 0 
L 1766 0 
Q 1100 0 847 248 
Q 594 497 594 1153 
L 594 3053 
L 172 3053 
L 172 3500 
L 594 3500 
L 594 4494 
L 1172 4494 
z
" transform="scale(0.015625)"/>
       <path id="DejaVuSans-61" d="M 2194 1759 
Q 1497 1759 1228 1600 
Q 959 1441 959 1056 
Q 959 750 1161 570 
Q 1363 391 1709 391 
Q 2188 391 2477 730 
Q 2766 1069 2766 1631 
L 2766 1759 
L 2194 1759 
z
M 3341 1997 
L 3341 0 
L 2766 0 
L 2766 531 
Q 2569 213 2275 61 
Q 1981 -91 1556 -91 
Q 1019 -91 701 211 
Q 384 513 384 1019 
Q 384 1609 779 1909 
Q 1175 2209 1959 2209 
L 2766 2209 
L 2766 2266 
Q 2766 2663 2505 2880 
Q 2244 3097 1772 3097 
Q 1472 3097 1187 3025 
Q 903 2953 641 2809 
L 641 3341 
Q 956 3463 1253 3523 
Q 1550 3584 1831 3584 
Q 2591 3584 2966 3190 
Q 3341 2797 3341 1997 
z
" transform="scale(0.015625)"/>
       <path id="DejaVuSans-67" d="M 2906 1791 
Q 2906 2416 2648 2759 
Q 2391 3103 1925 3103 
Q 1463 3103 1205 2759 
Q 947 2416 947 1791 
Q 947 1169 1205 825 
Q 1463 481 1925 481 
Q 2391 481 2648 825 
Q 2906 1169 2906 1791 
z
M 3481 434 
Q 3481 -459 3084 -895 
Q 2688 -1331 1869 -1331 
Q 1566 -1331 1297 -1286 
Q 1028 -1241 775 -1147 
L 775 -588 
Q 1028 -725 1275 -790 
Q 1522 -856 1778 -856 
Q 2344 -856 2625 -561 
Q 2906 -266 2906 331 
L 2906 616 
Q 2728 306 2450 153 
Q 2172 0 1784 0 
Q 1141 0 747 490 
Q 353 981 353 1791 
Q 353 2603 747 3093 
Q 1141 3584 1784 3584 
Q 2172 3584 2450 3431 
Q 2728 3278 2906 2969 
L 2906 3500 
L 3481 3500 
L 3481 434 
z
" transform="scale(0.015625)"/>
       <path id="DejaVuSans-20" transform="scale(0.015625)"/>
       <path id="DejaVuSans-6f" d="M 1959 3097 
Q 1497 3097 1228 2736 
Q 959 2375 959 1747 
Q 959 1119 1226 758 
Q 1494 397 1959 397 
Q 2419 397 2687 759 
Q 2956 1122 2956 1747 
Q 2956 2369 2687 2733 
Q 2419 3097 1959 3097 
z
M 1959 3584 
Q 2709 3584 3137 3096 
Q 3566 2609 3566 1747 
Q 3566 888 3137 398 
Q 2709 -91 1959 -91 
Q 1206 -91 779 398 
Q 353 888 353 1747 
Q 353 2609 779 3096 
Q 1206 3584 1959 3584 
z
" transform="scale(0.015625)"/>
       <path id="DejaVuSans-66" d="M 2375 4863 
L 2375 4384 
L 1825 4384 
Q 1516 4384 1395 4259 
Q 1275 4134 1275 3809 
L 1275 3500 
L 2222 3500 
L 2222 3053 
L 1275 3053 
L 1275 0 
L 697 0 
L 697 3053 
L 147 3053 
L 147 3500 
L 697 3500 
L 697 3744 
Q 697 4328 969 4595 
Q 1241 4863 1831 4863 
L 2375 4863 
z
" transform="scale(0.015625)"/>
       <path id="DejaVuSans-43" d="M 4122 4306 
L 4122 3641 
Q 3803 3938 3442 4084 
Q 3081 4231 2675 4231 
Q 1875 4231 1450 3742 
Q 1025 3253 1025 2328 
Q 1025 1406 1450 917 
Q 1875 428 2675 428 
Q 3081 428 3442 575 
Q 3803 722 4122 1019 
L 4122 359 
Q 3791 134 3420 21 
Q 3050 -91 2638 -91 
Q 1578 -91 968 557 
Q 359 1206 359 2328 
Q 359 3453 968 4101 
Q 1578 4750 2638 4750 
Q 3056 4750 3426 4639 
Q 3797 4528 4122 4306 
z
" transform="scale(0.015625)"/>
       <path id="DejaVuSans-6d" d="M 3328 2828 
Q 3544 3216 3844 3400 
Q 4144 3584 4550 3584 
Q 5097 3584 5394 3201 
Q 5691 2819 5691 2113 
L 5691 0 
L 5113 0 
L 5113 2094 
Q 5113 2597 4934 2840 
Q 4756 3084 4391 3084 
Q 3944 3084 3684 2787 
Q 3425 2491 3425 1978 
L 3425 0 
L 2847 0 
L 2847 2094 
Q 2847 2600 2669 2842 
Q 2491 3084 2119 3084 
Q 1678 3084 1418 2786 
Q 1159 2488 1159 1978 
L 1159 0 
L 581 0 
L 581 3500 
L 1159 3500 
L 1159 2956 
Q 1356 3278 1631 3431 
Q 1906 3584 2284 3584 
Q 2666 3584 2933 3390 
Q 3200 3197 3328 2828 
z
" transform="scale(0.015625)"/>
       <path id="DejaVuSans-75" d="M 544 1381 
L 544 3500 
L 1119 3500 
L 1119 1403 
Q 1119 906 1312 657 
Q 1506 409 1894 409 
Q 2359 409 2629 706 
Q 2900 1003 2900 1516 
L 2900 3500 
L 3475 3500 
L 3475 0 
L 2900 0 
L 2900 538 
Q 2691 219 2414 64 
Q 2138 -91 1772 -91 
Q 1169 -91 856 284 
Q 544 659 544 1381 
z
M 1991 3584 
L 1991 3584 
z
" transform="scale(0.015625)"/>
       <path id="DejaVuSans-69" d="M 603 3500 
L 1178 3500 
L 1178 0 
L 603 0 
L 603 3500 
z
M 603 4863 
L 1178 4863 
L 1178 4134 
L 603 4134 
L 603 4863 
z
" transform="scale(0.015625)"/>
       <path id="DejaVuSans-73" d="M 2834 3397 
L 2834 2853 
Q 2591 2978 2328 3040 
Q 2066 3103 1784 3103 
Q 1356 3103 1142 2972 
Q 928 2841 928 2578 
Q 928 2378 1081 2264 
Q 1234 2150 1697 2047 
L 1894 2003 
Q 2506 1872 2764 1633 
Q 3022 1394 3022 966 
Q 3022 478 2636 193 
Q 2250 -91 1575 -91 
Q 1294 -91 989 -36 
Q 684 19 347 128 
L 347 722 
Q 666 556 975 473 
Q 1284 391 1588 391 
Q 1994 391 2212 530 
Q 2431 669 2431 922 
Q 2431 1156 2273 1281 
Q 2116 1406 1581 1522 
L 1381 1569 
Q 847 1681 609 1914 
Q 372 2147 372 2553 
Q 372 3047 722 3315 
Q 1072 3584 1716 3584 
Q 2034 3584 2315 3537 
Q 2597 3491 2834 3397 
z
" transform="scale(0.015625)"/>
       <path id="DejaVuSans-28" d="M 1984 4856 
Q 1566 4138 1362 3434 
Q 1159 2731 1159 2009 
Q 1159 1288 1364 580 
Q 1569 -128 1984 -844 
L 1484 -844 
Q 1016 -109 783 600 
Q 550 1309 550 2009 
Q 550 2706 781 3412 
Q 1013 4119 1484 4856 
L 1984 4856 
z
" transform="scale(0.015625)"/>
       <path id="DejaVuSans-25" d="M 4653 2053 
Q 4381 2053 4226 1822 
Q 4072 1591 4072 1178 
Q 4072 772 4226 539 
Q 4381 306 4653 306 
Q 4919 306 5073 539 
Q 5228 772 5228 1178 
Q 5228 1588 5073 1820 
Q 4919 2053 4653 2053 
z
M 4653 2450 
Q 5147 2450 5437 2106 
Q 5728 1763 5728 1178 
Q 5728 594 5436 251 
Q 5144 -91 4653 -91 
Q 4153 -91 3862 251 
Q 3572 594 3572 1178 
Q 3572 1766 3864 2108 
Q 4156 2450 4653 2450 
z
M 1428 4353 
Q 1159 4353 1004 4120 
Q 850 3888 850 3481 
Q 850 3069 1003 2837 
Q 1156 2606 1428 2606 
Q 1700 2606 1854 2837 
Q 2009 3069 2009 3481 
Q 2009 3884 1853 4118 
Q 1697 4353 1428 4353 
z
M 4250 4750 
L 4750 4750 
L 1831 -91 
L 1331 -91 
L 4250 4750 
z
M 1428 4750 
Q 1922 4750 2215 4408 
Q 2509 4066 2509 3481 
Q 2509 2891 2217 2550 
Q 1925 2209 1428 2209 
Q 931 2209 642 2551 
Q 353 2894 353 3481 
Q 353 4063 643 4406 
Q 934 4750 1428 4750 
z
" transform="scale(0.015625)"/>
       <path id="DejaVuSans-29" d="M 513 4856 
L 1013 4856 
Q 1481 4119 1714 3412 
Q 1947 2706 1947 2009 
Q 1947 1309 1714 600 
Q 1481 -109 1013 -844 
L 513 -844 
Q 928 -128 1133 580 
Q 1338 1288 1338 2009 
Q 1338 2731 1133 3434 
Q 928 4138 513 4856 
z
" transform="scale(0.015625)"/>
      </defs>
      <use xlink:href="#DejaVuSans-50"/>
      <use xlink:href="#DejaVuSans-65" transform="translate(56.677734 0)"/>
      <use xlink:href="#DejaVuSans-72" transform="translate(118.201172 0)"/>
      <use xlink:href="#DejaVuSans-63" transform="translate(157.064453 0)"/>
      <use xlink:href="#DejaVuSans-65" transform="translate(212.044922 0)"/>
      <use xlink:href="#DejaVuSans-6e" transform="translate(273.568359 0)"/>
      <use xlink:href="#DejaVuSans-74" transform="translate(336.947266 0)"/>
      <use xlink:href="#DejaVuSans-61" transform="translate(376.15625 0)"/>
      <use xlink:href="#DejaVuSans-67" transform="translate(437.435547 0)"/>
      <use xlink:href="#DejaVuSans-65" transform="translate(500.912109 0)"/>
      <use xlink:href="#DejaVuSans-20" transform="translate(562.435547 0)"/>
      <use xlink:href="#DejaVuSans-6f" transform="translate(594.222656 0)"/>
      <use xlink:href="#DejaVuSans-66" transform="translate(655.404297 0)"/>
      <use xlink:href="#DejaVuSans-20" transform="translate(690.609375 0)"/>
      <use xlink:href="#DejaVuSans-43" transform="translate(722.396484 0)"/>
      <use xlink:href="#DejaVuSans-6f" transform="translate(792.220703 0)"/>
      <use xlink:href="#DejaVuSans-6d" transform="translate(853.402344 0)"/>
      <use xlink:href="#DejaVuSans-6d" transform="translate(950.814453 0)"/>
      <use xlink:href="#DejaVuSans-75" transform="translate(1048.226562 0)"/>
      <use xlink:href="#DejaVuSans-6e" transform="translate(1111.605469 0)"/>
      <use xlink:href="#DejaVuSans-69" transform="translate(1174.984375 0)"/>
      <use xlink:href="#DejaVuSans-74" transform="translate(1202.767578 0)"/>
      <use xlink:href="#DejaVuSans-69" transform="translate(1241.976562 0)"/>
      <use xlink:href="#DejaVuSans-65" transform="translate(1269.759766 0)"/>
      <use xlink:href="#DejaVuSans-73" transform="translate(1331.283203 0)"/>
      <use xlink:href="#DejaVuSans-20" transform="translate(1383.382812 0)"/>
      <use xlink:href="#DejaVuSans-28" transform="translate(1415.169922 0)"/>
      <use xlink:href="#DejaVuSans-25" transform="translate(1454.183594 0)"/>
      <use xlink:href="#DejaVuSans-29" transform="translate(1549.203125 0)"/>
     </g>
    </g>
   </g>
   <g id="matplotlib.axis_2">
    <g id="ytick_1">
     <g id="line2d_25">
      <defs>
       <path id="mb1389d05fb" d="M 0 0 
L -3.5 0 
" style="stroke: #000000; stroke-width: 0.8"/>
      </defs>
      <g>
       <use xlink:href="#mb1389d05fb" x="153.750625" y="106.254828" style="stroke: #000000; stroke-width: 0.8"/>
      </g>
     </g>
     <g id="text_18">
      <!-- Lifestyle -->
      <g transform="translate(71.145 113.093422) scale(0.18 -0.18)">
       <defs>
        <path id="DejaVuSans-4c" d="M 628 4666 
L 1259 4666 
L 1259 531 
L 3531 531 
L 3531 0 
L 628 0 
L 628 4666 
z
" transform="scale(0.015625)"/>
        <path id="DejaVuSans-79" d="M 2059 -325 
Q 1816 -950 1584 -1140 
Q 1353 -1331 966 -1331 
L 506 -1331 
L 506 -850 
L 844 -850 
Q 1081 -850 1212 -737 
Q 1344 -625 1503 -206 
L 1606 56 
L 191 3500 
L 800 3500 
L 1894 763 
L 2988 3500 
L 3597 3500 
L 2059 -325 
z
" transform="scale(0.015625)"/>
        <path id="DejaVuSans-6c" d="M 603 4863 
L 1178 4863 
L 1178 0 
L 603 0 
L 603 4863 
z
" transform="scale(0.015625)"/>
       </defs>
       <use xlink:href="#DejaVuSans-4c"/>
       <use xlink:href="#DejaVuSans-69" transform="translate(55.712891 0)"/>
       <use xlink:href="#DejaVuSans-66" transform="translate(83.496094 0)"/>
       <use xlink:href="#DejaVuSans-65" transform="translate(118.701172 0)"/>
       <use xlink:href="#DejaVuSans-73" transform="translate(180.224609 0)"/>
       <use xlink:href="#DejaVuSans-74" transform="translate(232.324219 0)"/>
       <use xlink:href="#DejaVuSans-79" transform="translate(271.533203 0)"/>
       <use xlink:href="#DejaVuSans-6c" transform="translate(330.712891 0)"/>
       <use xlink:href="#DejaVuSans-65" transform="translate(358.496094 0)"/>
      </g>
     </g>
    </g>
    <g id="ytick_2">
     <g id="line2d_26">
      <g>
       <use xlink:href="#mb1389d05fb" x="153.750625" y="160.718764" style="stroke: #000000; stroke-width: 0.8"/>
      </g>
     </g>
     <g id="text_19">
      <!-- Reproductive -->
      <g transform="translate(28.02375 167.557358) scale(0.18 -0.18)">
       <defs>
        <path id="DejaVuSans-52" d="M 2841 2188 
Q 3044 2119 3236 1894 
Q 3428 1669 3622 1275 
L 4263 0 
L 3584 0 
L 2988 1197 
Q 2756 1666 2539 1819 
Q 2322 1972 1947 1972 
L 1259 1972 
L 1259 0 
L 628 0 
L 628 4666 
L 2053 4666 
Q 2853 4666 3247 4331 
Q 3641 3997 3641 3322 
Q 3641 2881 3436 2590 
Q 3231 2300 2841 2188 
z
M 1259 4147 
L 1259 2491 
L 2053 2491 
Q 2509 2491 2742 2702 
Q 2975 2913 2975 3322 
Q 2975 3731 2742 3939 
Q 2509 4147 2053 4147 
L 1259 4147 
z
" transform="scale(0.015625)"/>
        <path id="DejaVuSans-70" d="M 1159 525 
L 1159 -1331 
L 581 -1331 
L 581 3500 
L 1159 3500 
L 1159 2969 
Q 1341 3281 1617 3432 
Q 1894 3584 2278 3584 
Q 2916 3584 3314 3078 
Q 3713 2572 3713 1747 
Q 3713 922 3314 415 
Q 2916 -91 2278 -91 
Q 1894 -91 1617 61 
Q 1341 213 1159 525 
z
M 3116 1747 
Q 3116 2381 2855 2742 
Q 2594 3103 2138 3103 
Q 1681 3103 1420 2742 
Q 1159 2381 1159 1747 
Q 1159 1113 1420 752 
Q 1681 391 2138 391 
Q 2594 391 2855 752 
Q 3116 1113 3116 1747 
z
" transform="scale(0.015625)"/>
        <path id="DejaVuSans-64" d="M 2906 2969 
L 2906 4863 
L 3481 4863 
L 3481 0 
L 2906 0 
L 2906 525 
Q 2725 213 2448 61 
Q 2172 -91 1784 -91 
Q 1150 -91 751 415 
Q 353 922 353 1747 
Q 353 2572 751 3078 
Q 1150 3584 1784 3584 
Q 2172 3584 2448 3432 
Q 2725 3281 2906 2969 
z
M 947 1747 
Q 947 1113 1208 752 
Q 1469 391 1925 391 
Q 2381 391 2643 752 
Q 2906 1113 2906 1747 
Q 2906 2381 2643 2742 
Q 2381 3103 1925 3103 
Q 1469 3103 1208 2742 
Q 947 2381 947 1747 
z
" transform="scale(0.015625)"/>
        <path id="DejaVuSans-76" d="M 191 3500 
L 800 3500 
L 1894 563 
L 2988 3500 
L 3597 3500 
L 2284 0 
L 1503 0 
L 191 3500 
z
" transform="scale(0.015625)"/>
       </defs>
       <use xlink:href="#DejaVuSans-52"/>
       <use xlink:href="#DejaVuSans-65" transform="translate(64.982422 0)"/>
       <use xlink:href="#DejaVuSans-70" transform="translate(126.505859 0)"/>
       <use xlink:href="#DejaVuSans-72" transform="translate(189.982422 0)"/>
       <use xlink:href="#DejaVuSans-6f" transform="translate(228.845703 0)"/>
       <use xlink:href="#DejaVuSans-64" transform="translate(290.027344 0)"/>
       <use xlink:href="#DejaVuSans-75" transform="translate(353.503906 0)"/>
       <use xlink:href="#DejaVuSans-63" transform="translate(416.882812 0)"/>
       <use xlink:href="#DejaVuSans-74" transform="translate(471.863281 0)"/>
       <use xlink:href="#DejaVuSans-69" transform="translate(511.072266 0)"/>
       <use xlink:href="#DejaVuSans-76" transform="translate(538.855469 0)"/>
       <use xlink:href="#DejaVuSans-65" transform="translate(598.035156 0)"/>
      </g>
     </g>
    </g>
    <g id="ytick_3">
     <g id="line2d_27">
      <g>
       <use xlink:href="#mb1389d05fb" x="153.750625" y="215.1827" style="stroke: #000000; stroke-width: 0.8"/>
      </g>
     </g>
     <g id="text_20">
      <!-- Mental -->
      <g transform="translate(85.649062 222.021294) scale(0.18 -0.18)">
       <defs>
        <path id="DejaVuSans-4d" d="M 628 4666 
L 1569 4666 
L 2759 1491 
L 3956 4666 
L 4897 4666 
L 4897 0 
L 4281 0 
L 4281 4097 
L 3078 897 
L 2444 897 
L 1241 4097 
L 1241 0 
L 628 0 
L 628 4666 
z
" transform="scale(0.015625)"/>
       </defs>
       <use xlink:href="#DejaVuSans-4d"/>
       <use xlink:href="#DejaVuSans-65" transform="translate(86.279297 0)"/>
       <use xlink:href="#DejaVuSans-6e" transform="translate(147.802734 0)"/>
       <use xlink:href="#DejaVuSans-74" transform="translate(211.181641 0)"/>
       <use xlink:href="#DejaVuSans-61" transform="translate(250.390625 0)"/>
       <use xlink:href="#DejaVuSans-6c" transform="translate(311.669922 0)"/>
      </g>
     </g>
    </g>
    <g id="ytick_4">
     <g id="line2d_28">
      <g>
       <use xlink:href="#mb1389d05fb" x="153.750625" y="269.646636" style="stroke: #000000; stroke-width: 0.8"/>
      </g>
     </g>
     <g id="text_21">
      <!-- Pain -->
      <g transform="translate(109.268437 276.48523) scale(0.18 -0.18)">
       <use xlink:href="#DejaVuSans-50"/>
       <use xlink:href="#DejaVuSans-61" transform="translate(55.802734 0)"/>
       <use xlink:href="#DejaVuSans-69" transform="translate(117.082031 0)"/>
       <use xlink:href="#DejaVuSans-6e" transform="translate(144.865234 0)"/>
      </g>
     </g>
    </g>
    <g id="ytick_5">
     <g id="line2d_29">
      <g>
       <use xlink:href="#mb1389d05fb" x="153.750625" y="324.110573" style="stroke: #000000; stroke-width: 0.8"/>
      </g>
     </g>
     <g id="text_22">
      <!-- Neurological -->
      <g transform="translate(34.422187 330.949166) scale(0.18 -0.18)">
       <defs>
        <path id="DejaVuSans-4e" d="M 628 4666 
L 1478 4666 
L 3547 763 
L 3547 4666 
L 4159 4666 
L 4159 0 
L 3309 0 
L 1241 3903 
L 1241 0 
L 628 0 
L 628 4666 
z
" transform="scale(0.015625)"/>
       </defs>
       <use xlink:href="#DejaVuSans-4e"/>
       <use xlink:href="#DejaVuSans-65" transform="translate(74.804688 0)"/>
       <use xlink:href="#DejaVuSans-75" transform="translate(136.328125 0)"/>
       <use xlink:href="#DejaVuSans-72" transform="translate(199.707031 0)"/>
       <use xlink:href="#DejaVuSans-6f" transform="translate(238.570312 0)"/>
       <use xlink:href="#DejaVuSans-6c" transform="translate(299.751953 0)"/>
       <use xlink:href="#DejaVuSans-6f" transform="translate(327.535156 0)"/>
       <use xlink:href="#DejaVuSans-67" transform="translate(388.716797 0)"/>
       <use xlink:href="#DejaVuSans-69" transform="translate(452.193359 0)"/>
       <use xlink:href="#DejaVuSans-63" transform="translate(479.976562 0)"/>
       <use xlink:href="#DejaVuSans-61" transform="translate(534.957031 0)"/>
       <use xlink:href="#DejaVuSans-6c" transform="translate(596.236328 0)"/>
      </g>
     </g>
    </g>
    <g id="ytick_6">
     <g id="line2d_30">
      <g>
       <use xlink:href="#mb1389d05fb" x="153.750625" y="378.574509" style="stroke: #000000; stroke-width: 0.8"/>
      </g>
     </g>
     <g id="text_23">
      <!-- Cancer -->
      <g transform="translate(83.370937 385.413102) scale(0.18 -0.18)">
       <use xlink:href="#DejaVuSans-43"/>
       <use xlink:href="#DejaVuSans-61" transform="translate(69.824219 0)"/>
       <use xlink:href="#DejaVuSans-6e" transform="translate(131.103516 0)"/>
       <use xlink:href="#DejaVuSans-63" transform="translate(194.482422 0)"/>
       <use xlink:href="#DejaVuSans-65" transform="translate(249.462891 0)"/>
       <use xlink:href="#DejaVuSans-72" transform="translate(310.986328 0)"/>
      </g>
     </g>
    </g>
    <g id="ytick_7">
     <g id="line2d_31">
      <g>
       <use xlink:href="#mb1389d05fb" x="153.750625" y="433.038445" style="stroke: #000000; stroke-width: 0.8"/>
      </g>
     </g>
     <g id="text_24">
      <!-- Metabolic -->
      <g transform="translate(59.717812 439.877038) scale(0.18 -0.18)">
       <defs>
        <path id="DejaVuSans-62" d="M 3116 1747 
Q 3116 2381 2855 2742 
Q 2594 3103 2138 3103 
Q 1681 3103 1420 2742 
Q 1159 2381 1159 1747 
Q 1159 1113 1420 752 
Q 1681 391 2138 391 
Q 2594 391 2855 752 
Q 3116 1113 3116 1747 
z
M 1159 2969 
Q 1341 3281 1617 3432 
Q 1894 3584 2278 3584 
Q 2916 3584 3314 3078 
Q 3713 2572 3713 1747 
Q 3713 922 3314 415 
Q 2916 -91 2278 -91 
Q 1894 -91 1617 61 
Q 1341 213 1159 525 
L 1159 0 
L 581 0 
L 581 4863 
L 1159 4863 
L 1159 2969 
z
" transform="scale(0.015625)"/>
       </defs>
       <use xlink:href="#DejaVuSans-4d"/>
       <use xlink:href="#DejaVuSans-65" transform="translate(86.279297 0)"/>
       <use xlink:href="#DejaVuSans-74" transform="translate(147.802734 0)"/>
       <use xlink:href="#DejaVuSans-61" transform="translate(187.011719 0)"/>
       <use xlink:href="#DejaVuSans-62" transform="translate(248.291016 0)"/>
       <use xlink:href="#DejaVuSans-6f" transform="translate(311.767578 0)"/>
       <use xlink:href="#DejaVuSans-6c" transform="translate(372.949219 0)"/>
       <use xlink:href="#DejaVuSans-69" transform="translate(400.732422 0)"/>
       <use xlink:href="#DejaVuSans-63" transform="translate(428.515625 0)"/>
      </g>
     </g>
    </g>
    <g id="ytick_8">
     <g id="line2d_32">
      <g>
       <use xlink:href="#mb1389d05fb" x="153.750625" y="487.502381" style="stroke: #000000; stroke-width: 0.8"/>
      </g>
     </g>
     <g id="text_25">
      <!-- Autoimmune -->
      <g transform="translate(31.002187 494.340974) scale(0.18 -0.18)">
       <defs>
        <path id="DejaVuSans-41" d="M 2188 4044 
L 1331 1722 
L 3047 1722 
L 2188 4044 
z
M 1831 4666 
L 2547 4666 
L 4325 0 
L 3669 0 
L 3244 1197 
L 1141 1197 
L 716 0 
L 50 0 
L 1831 4666 
z
" transform="scale(0.015625)"/>
       </defs>
       <use xlink:href="#DejaVuSans-41"/>
       <use xlink:href="#DejaVuSans-75" transform="translate(68.408203 0)"/>
       <use xlink:href="#DejaVuSans-74" transform="translate(131.787109 0)"/>
       <use xlink:href="#DejaVuSans-6f" transform="translate(170.996094 0)"/>
       <use xlink:href="#DejaVuSans-69" transform="translate(232.177734 0)"/>
       <use xlink:href="#DejaVuSans-6d" transform="translate(259.960938 0)"/>
       <use xlink:href="#DejaVuSans-6d" transform="translate(357.373047 0)"/>
       <use xlink:href="#DejaVuSans-75" transform="translate(454.785156 0)"/>
       <use xlink:href="#DejaVuSans-6e" transform="translate(518.164062 0)"/>
       <use xlink:href="#DejaVuSans-65" transform="translate(581.542969 0)"/>
      </g>
     </g>
    </g>
    <g id="ytick_9">
     <g id="line2d_33">
      <g>
       <use xlink:href="#mb1389d05fb" x="153.750625" y="541.966317" style="stroke: #000000; stroke-width: 0.8"/>
      </g>
     </g>
     <g id="text_26">
      <!-- Cardiovascular -->
      <g transform="translate(12.827812 548.804911) scale(0.18 -0.18)">
       <use xlink:href="#DejaVuSans-43"/>
       <use xlink:href="#DejaVuSans-61" transform="translate(69.824219 0)"/>
       <use xlink:href="#DejaVuSans-72" transform="translate(131.103516 0)"/>
       <use xlink:href="#DejaVuSans-64" transform="translate(170.466797 0)"/>
       <use xlink:href="#DejaVuSans-69" transform="translate(233.943359 0)"/>
       <use xlink:href="#DejaVuSans-6f" transform="translate(261.726562 0)"/>
       <use xlink:href="#DejaVuSans-76" transform="translate(322.908203 0)"/>
       <use xlink:href="#DejaVuSans-61" transform="translate(382.087891 0)"/>
       <use xlink:href="#DejaVuSans-73" transform="translate(443.367188 0)"/>
       <use xlink:href="#DejaVuSans-63" transform="translate(495.466797 0)"/>
       <use xlink:href="#DejaVuSans-75" transform="translate(550.447266 0)"/>
       <use xlink:href="#DejaVuSans-6c" transform="translate(613.826172 0)"/>
       <use xlink:href="#DejaVuSans-61" transform="translate(641.609375 0)"/>
       <use xlink:href="#DejaVuSans-72" transform="translate(702.888672 0)"/>
      </g>
     </g>
    </g>
    <g id="ytick_10">
     <g id="line2d_34">
      <g>
       <use xlink:href="#mb1389d05fb" x="153.750625" y="596.430253" style="stroke: #000000; stroke-width: 0.8"/>
      </g>
     </g>
     <g id="text_27">
      <!-- Digestive -->
      <g transform="translate(62.22375 603.268847) scale(0.18 -0.18)">
       <defs>
        <path id="DejaVuSans-44" d="M 1259 4147 
L 1259 519 
L 2022 519 
Q 2988 519 3436 956 
Q 3884 1394 3884 2338 
Q 3884 3275 3436 3711 
Q 2988 4147 2022 4147 
L 1259 4147 
z
M 628 4666 
L 1925 4666 
Q 3281 4666 3915 4102 
Q 4550 3538 4550 2338 
Q 4550 1131 3912 565 
Q 3275 0 1925 0 
L 628 0 
L 628 4666 
z
" transform="scale(0.015625)"/>
       </defs>
       <use xlink:href="#DejaVuSans-44"/>
       <use xlink:href="#DejaVuSans-69" transform="translate(77.001953 0)"/>
       <use xlink:href="#DejaVuSans-67" transform="translate(104.785156 0)"/>
       <use xlink:href="#DejaVuSans-65" transform="translate(168.261719 0)"/>
       <use xlink:href="#DejaVuSans-73" transform="translate(229.785156 0)"/>
       <use xlink:href="#DejaVuSans-74" transform="translate(281.884766 0)"/>
       <use xlink:href="#DejaVuSans-69" transform="translate(321.09375 0)"/>
       <use xlink:href="#DejaVuSans-76" transform="translate(348.876953 0)"/>
       <use xlink:href="#DejaVuSans-65" transform="translate(408.056641 0)"/>
      </g>
     </g>
    </g>
    <g id="ytick_11">
     <g id="line2d_35">
      <g>
       <use xlink:href="#mb1389d05fb" x="153.750625" y="650.894189" style="stroke: #000000; stroke-width: 0.8"/>
      </g>
     </g>
     <g id="text_28">
      <!-- Renal/Liver -->
      <g transform="translate(46.31625 657.732783) scale(0.18 -0.18)">
       <defs>
        <path id="DejaVuSans-2f" d="M 1625 4666 
L 2156 4666 
L 531 -594 
L 0 -594 
L 1625 4666 
z
" transform="scale(0.015625)"/>
       </defs>
       <use xlink:href="#DejaVuSans-52"/>
       <use xlink:href="#DejaVuSans-65" transform="translate(64.982422 0)"/>
       <use xlink:href="#DejaVuSans-6e" transform="translate(126.505859 0)"/>
       <use xlink:href="#DejaVuSans-61" transform="translate(189.884766 0)"/>
       <use xlink:href="#DejaVuSans-6c" transform="translate(251.164062 0)"/>
       <use xlink:href="#DejaVuSans-2f" transform="translate(278.947266 0)"/>
       <use xlink:href="#DejaVuSans-4c" transform="translate(312.638672 0)"/>
       <use xlink:href="#DejaVuSans-69" transform="translate(368.351562 0)"/>
       <use xlink:href="#DejaVuSans-76" transform="translate(396.134766 0)"/>
       <use xlink:href="#DejaVuSans-65" transform="translate(455.314453 0)"/>
       <use xlink:href="#DejaVuSans-72" transform="translate(516.837891 0)"/>
      </g>
     </g>
    </g>
    <g id="ytick_12">
     <g id="line2d_36">
      <g>
       <use xlink:href="#mb1389d05fb" x="153.750625" y="705.358125" style="stroke: #000000; stroke-width: 0.8"/>
      </g>
     </g>
     <g id="text_29">
      <!-- Medications -->
      <g transform="translate(38.933437 712.196719) scale(0.18 -0.18)">
       <use xlink:href="#DejaVuSans-4d"/>
       <use xlink:href="#DejaVuSans-65" transform="translate(86.279297 0)"/>
       <use xlink:href="#DejaVuSans-64" transform="translate(147.802734 0)"/>
       <use xlink:href="#DejaVuSans-69" transform="translate(211.279297 0)"/>
       <use xlink:href="#DejaVuSans-63" transform="translate(239.0625 0)"/>
       <use xlink:href="#DejaVuSans-61" transform="translate(294.042969 0)"/>
       <use xlink:href="#DejaVuSans-74" transform="translate(355.322266 0)"/>
       <use xlink:href="#DejaVuSans-69" transform="translate(394.53125 0)"/>
       <use xlink:href="#DejaVuSans-6f" transform="translate(422.314453 0)"/>
       <use xlink:href="#DejaVuSans-6e" transform="translate(483.496094 0)"/>
       <use xlink:href="#DejaVuSans-73" transform="translate(546.875 0)"/>
      </g>
     </g>
    </g>
    <g id="ytick_13">
     <g id="line2d_37">
      <g>
       <use xlink:href="#mb1389d05fb" x="153.750625" y="759.822061" style="stroke: #000000; stroke-width: 0.8"/>
      </g>
     </g>
     <g id="text_30">
      <!-- Respiratory -->
      <g transform="translate(43.619062 766.660655) scale(0.18 -0.18)">
       <use xlink:href="#DejaVuSans-52"/>
       <use xlink:href="#DejaVuSans-65" transform="translate(64.982422 0)"/>
       <use xlink:href="#DejaVuSans-73" transform="translate(126.505859 0)"/>
       <use xlink:href="#DejaVuSans-70" transform="translate(178.605469 0)"/>
       <use xlink:href="#DejaVuSans-69" transform="translate(242.082031 0)"/>
       <use xlink:href="#DejaVuSans-72" transform="translate(269.865234 0)"/>
       <use xlink:href="#DejaVuSans-61" transform="translate(310.978516 0)"/>
       <use xlink:href="#DejaVuSans-74" transform="translate(372.257812 0)"/>
       <use xlink:href="#DejaVuSans-6f" transform="translate(411.466797 0)"/>
       <use xlink:href="#DejaVuSans-72" transform="translate(472.648438 0)"/>
       <use xlink:href="#DejaVuSans-79" transform="translate(513.761719 0)"/>
      </g>
     </g>
    </g>
    <g id="ytick_14">
     <g id="line2d_38">
      <g>
       <use xlink:href="#mb1389d05fb" x="153.750625" y="814.285997" style="stroke: #000000; stroke-width: 0.8"/>
      </g>
     </g>
     <g id="text_31">
      <!-- Patient Support -->
      <g transform="translate(7.2 821.124591) scale(0.18 -0.18)">
       <defs>
        <path id="DejaVuSans-53" d="M 3425 4513 
L 3425 3897 
Q 3066 4069 2747 4153 
Q 2428 4238 2131 4238 
Q 1616 4238 1336 4038 
Q 1056 3838 1056 3469 
Q 1056 3159 1242 3001 
Q 1428 2844 1947 2747 
L 2328 2669 
Q 3034 2534 3370 2195 
Q 3706 1856 3706 1288 
Q 3706 609 3251 259 
Q 2797 -91 1919 -91 
Q 1588 -91 1214 -16 
Q 841 59 441 206 
L 441 856 
Q 825 641 1194 531 
Q 1563 422 1919 422 
Q 2459 422 2753 634 
Q 3047 847 3047 1241 
Q 3047 1584 2836 1778 
Q 2625 1972 2144 2069 
L 1759 2144 
Q 1053 2284 737 2584 
Q 422 2884 422 3419 
Q 422 4038 858 4394 
Q 1294 4750 2059 4750 
Q 2388 4750 2728 4690 
Q 3069 4631 3425 4513 
z
" transform="scale(0.015625)"/>
       </defs>
       <use xlink:href="#DejaVuSans-50"/>
       <use xlink:href="#DejaVuSans-61" transform="translate(55.802734 0)"/>
       <use xlink:href="#DejaVuSans-74" transform="translate(117.082031 0)"/>
       <use xlink:href="#DejaVuSans-69" transform="translate(156.291016 0)"/>
       <use xlink:href="#DejaVuSans-65" transform="translate(184.074219 0)"/>
       <use xlink:href="#DejaVuSans-6e" transform="translate(245.597656 0)"/>
       <use xlink:href="#DejaVuSans-74" transform="translate(308.976562 0)"/>
       <use xlink:href="#DejaVuSans-20" transform="translate(348.185547 0)"/>
       <use xlink:href="#DejaVuSans-53" transform="translate(379.972656 0)"/>
       <use xlink:href="#DejaVuSans-75" transform="translate(443.449219 0)"/>
       <use xlink:href="#DejaVuSans-70" transform="translate(506.828125 0)"/>
       <use xlink:href="#DejaVuSans-70" transform="translate(570.304688 0)"/>
       <use xlink:href="#DejaVuSans-6f" transform="translate(633.78125 0)"/>
       <use xlink:href="#DejaVuSans-72" transform="translate(694.962891 0)"/>
       <use xlink:href="#DejaVuSans-74" transform="translate(736.076172 0)"/>
      </g>
     </g>
    </g>
    <g id="ytick_15">
     <g id="line2d_39">
      <g>
       <use xlink:href="#mb1389d05fb" x="153.750625" y="868.749933" style="stroke: #000000; stroke-width: 0.8"/>
      </g>
     </g>
     <g id="text_32">
      <!-- Infectious -->
      <g transform="translate(58.868437 875.588527) scale(0.18 -0.18)">
       <defs>
        <path id="DejaVuSans-49" d="M 628 4666 
L 1259 4666 
L 1259 0 
L 628 0 
L 628 4666 
z
" transform="scale(0.015625)"/>
       </defs>
       <use xlink:href="#DejaVuSans-49"/>
       <use xlink:href="#DejaVuSans-6e" transform="translate(29.492188 0)"/>
       <use xlink:href="#DejaVuSans-66" transform="translate(92.871094 0)"/>
       <use xlink:href="#DejaVuSans-65" transform="translate(128.076172 0)"/>
       <use xlink:href="#DejaVuSans-63" transform="translate(189.599609 0)"/>
       <use xlink:href="#DejaVuSans-74" transform="translate(244.580078 0)"/>
       <use xlink:href="#DejaVuSans-69" transform="translate(283.789062 0)"/>
       <use xlink:href="#DejaVuSans-6f" transform="translate(311.572266 0)"/>
       <use xlink:href="#DejaVuSans-75" transform="translate(372.753906 0)"/>
       <use xlink:href="#DejaVuSans-73" transform="translate(436.132812 0)"/>
      </g>
     </g>
    </g>
    <g id="ytick_16">
     <g id="line2d_40">
      <g>
       <use xlink:href="#mb1389d05fb" x="153.750625" y="923.213869" style="stroke: #000000; stroke-width: 0.8"/>
      </g>
     </g>
     <g id="text_33">
      <!-- Addiction -->
      <g transform="translate(62.521875 930.052463) scale(0.18 -0.18)">
       <use xlink:href="#DejaVuSans-41"/>
       <use xlink:href="#DejaVuSans-64" transform="translate(66.658203 0)"/>
       <use xlink:href="#DejaVuSans-64" transform="translate(130.134766 0)"/>
       <use xlink:href="#DejaVuSans-69" transform="translate(193.611328 0)"/>
       <use xlink:href="#DejaVuSans-63" transform="translate(221.394531 0)"/>
       <use xlink:href="#DejaVuSans-74" transform="translate(276.375 0)"/>
       <use xlink:href="#DejaVuSans-69" transform="translate(315.583984 0)"/>
       <use xlink:href="#DejaVuSans-6f" transform="translate(343.367188 0)"/>
       <use xlink:href="#DejaVuSans-6e" transform="translate(404.548828 0)"/>
      </g>
     </g>
    </g>
    <g id="ytick_17">
     <g id="line2d_41">
      <g>
       <use xlink:href="#mb1389d05fb" x="153.750625" y="977.677805" style="stroke: #000000; stroke-width: 0.8"/>
      </g>
     </g>
     <g id="text_34">
      <!-- Dermatology -->
      <g transform="translate(30.000937 984.516399) scale(0.18 -0.18)">
       <use xlink:href="#DejaVuSans-44"/>
       <use xlink:href="#DejaVuSans-65" transform="translate(77.001953 0)"/>
       <use xlink:href="#DejaVuSans-72" transform="translate(138.525391 0)"/>
       <use xlink:href="#DejaVuSans-6d" transform="translate(177.888672 0)"/>
       <use xlink:href="#DejaVuSans-61" transform="translate(275.300781 0)"/>
       <use xlink:href="#DejaVuSans-74" transform="translate(336.580078 0)"/>
       <use xlink:href="#DejaVuSans-6f" transform="translate(375.789062 0)"/>
       <use xlink:href="#DejaVuSans-6c" transform="translate(436.970703 0)"/>
       <use xlink:href="#DejaVuSans-6f" transform="translate(464.753906 0)"/>
       <use xlink:href="#DejaVuSans-67" transform="translate(525.935547 0)"/>
       <use xlink:href="#DejaVuSans-79" transform="translate(589.412109 0)"/>
      </g>
     </g>
    </g>
    <g id="ytick_18">
     <g id="line2d_42">
      <g>
       <use xlink:href="#mb1389d05fb" x="153.750625" y="1032.141741" style="stroke: #000000; stroke-width: 0.8"/>
      </g>
     </g>
     <g id="text_35">
      <!-- Hematology -->
      <g transform="translate(37.409062 1038.980335) scale(0.18 -0.18)">
       <defs>
        <path id="DejaVuSans-48" d="M 628 4666 
L 1259 4666 
L 1259 2753 
L 3553 2753 
L 3553 4666 
L 4184 4666 
L 4184 0 
L 3553 0 
L 3553 2222 
L 1259 2222 
L 1259 0 
L 628 0 
L 628 4666 
z
" transform="scale(0.015625)"/>
       </defs>
       <use xlink:href="#DejaVuSans-48"/>
       <use xlink:href="#DejaVuSans-65" transform="translate(75.195312 0)"/>
       <use xlink:href="#DejaVuSans-6d" transform="translate(136.71875 0)"/>
       <use xlink:href="#DejaVuSans-61" transform="translate(234.130859 0)"/>
       <use xlink:href="#DejaVuSans-74" transform="translate(295.410156 0)"/>
       <use xlink:href="#DejaVuSans-6f" transform="translate(334.619141 0)"/>
       <use xlink:href="#DejaVuSans-6c" transform="translate(395.800781 0)"/>
       <use xlink:href="#DejaVuSans-6f" transform="translate(423.583984 0)"/>
       <use xlink:href="#DejaVuSans-67" transform="translate(484.765625 0)"/>
       <use xlink:href="#DejaVuSans-79" transform="translate(548.242188 0)"/>
      </g>
     </g>
    </g>
    <g id="ytick_19">
     <g id="line2d_43">
      <g>
       <use xlink:href="#mb1389d05fb" x="153.750625" y="1086.605677" style="stroke: #000000; stroke-width: 0.8"/>
      </g>
     </g>
     <g id="text_36">
      <!-- Procedures -->
      <g transform="translate(46.949062 1093.444271) scale(0.18 -0.18)">
       <use xlink:href="#DejaVuSans-50"/>
       <use xlink:href="#DejaVuSans-72" transform="translate(58.552734 0)"/>
       <use xlink:href="#DejaVuSans-6f" transform="translate(97.416016 0)"/>
       <use xlink:href="#DejaVuSans-63" transform="translate(158.597656 0)"/>
       <use xlink:href="#DejaVuSans-65" transform="translate(213.578125 0)"/>
       <use xlink:href="#DejaVuSans-64" transform="translate(275.101562 0)"/>
       <use xlink:href="#DejaVuSans-75" transform="translate(338.578125 0)"/>
       <use xlink:href="#DejaVuSans-72" transform="translate(401.957031 0)"/>
       <use xlink:href="#DejaVuSans-65" transform="translate(440.820312 0)"/>
       <use xlink:href="#DejaVuSans-73" transform="translate(502.34375 0)"/>
      </g>
     </g>
    </g>
    <g id="ytick_20">
     <g id="line2d_44">
      <g>
       <use xlink:href="#mb1389d05fb" x="153.750625" y="1141.069614" style="stroke: #000000; stroke-width: 0.8"/>
      </g>
     </g>
     <g id="text_37">
      <!-- Rare Diseases -->
      <g transform="translate(19.65375 1147.908207) scale(0.18 -0.18)">
       <use xlink:href="#DejaVuSans-52"/>
       <use xlink:href="#DejaVuSans-61" transform="translate(67.232422 0)"/>
       <use xlink:href="#DejaVuSans-72" transform="translate(128.511719 0)"/>
       <use xlink:href="#DejaVuSans-65" transform="translate(167.375 0)"/>
       <use xlink:href="#DejaVuSans-20" transform="translate(228.898438 0)"/>
       <use xlink:href="#DejaVuSans-44" transform="translate(260.685547 0)"/>
       <use xlink:href="#DejaVuSans-69" transform="translate(337.6875 0)"/>
       <use xlink:href="#DejaVuSans-73" transform="translate(365.470703 0)"/>
       <use xlink:href="#DejaVuSans-65" transform="translate(417.570312 0)"/>
       <use xlink:href="#DejaVuSans-61" transform="translate(479.09375 0)"/>
       <use xlink:href="#DejaVuSans-73" transform="translate(540.373047 0)"/>
       <use xlink:href="#DejaVuSans-65" transform="translate(592.472656 0)"/>
       <use xlink:href="#DejaVuSans-73" transform="translate(653.996094 0)"/>
      </g>
     </g>
    </g>
    <g id="ytick_21">
     <g id="line2d_45">
      <g>
       <use xlink:href="#mb1389d05fb" x="153.750625" y="1195.53355" style="stroke: #000000; stroke-width: 0.8"/>
      </g>
     </g>
     <g id="text_38">
      <!-- Allergy -->
      <g transform="translate(84.195 1202.372143) scale(0.18 -0.18)">
       <use xlink:href="#DejaVuSans-41"/>
       <use xlink:href="#DejaVuSans-6c" transform="translate(68.408203 0)"/>
       <use xlink:href="#DejaVuSans-6c" transform="translate(96.191406 0)"/>
       <use xlink:href="#DejaVuSans-65" transform="translate(123.974609 0)"/>
       <use xlink:href="#DejaVuSans-72" transform="translate(185.498047 0)"/>
       <use xlink:href="#DejaVuSans-67" transform="translate(224.861328 0)"/>
       <use xlink:href="#DejaVuSans-79" transform="translate(288.337891 0)"/>
      </g>
     </g>
    </g>
    <g id="ytick_22">
     <g id="line2d_46">
      <g>
       <use xlink:href="#mb1389d05fb" x="153.750625" y="1249.997486" style="stroke: #000000; stroke-width: 0.8"/>
      </g>
     </g>
     <g id="text_39">
      <!-- Vision -->
      <g transform="translate(93.043125 1256.836079) scale(0.18 -0.18)">
       <defs>
        <path id="DejaVuSans-56" d="M 1831 0 
L 50 4666 
L 709 4666 
L 2188 738 
L 3669 4666 
L 4325 4666 
L 2547 0 
L 1831 0 
z
" transform="scale(0.015625)"/>
       </defs>
       <use xlink:href="#DejaVuSans-56"/>
       <use xlink:href="#DejaVuSans-69" transform="translate(66.158203 0)"/>
       <use xlink:href="#DejaVuSans-73" transform="translate(93.941406 0)"/>
       <use xlink:href="#DejaVuSans-69" transform="translate(146.041016 0)"/>
       <use xlink:href="#DejaVuSans-6f" transform="translate(173.824219 0)"/>
       <use xlink:href="#DejaVuSans-6e" transform="translate(235.005859 0)"/>
      </g>
     </g>
    </g>
    <g id="ytick_23">
     <g id="line2d_47">
      <g>
       <use xlink:href="#mb1389d05fb" x="153.750625" y="1304.461422" style="stroke: #000000; stroke-width: 0.8"/>
      </g>
     </g>
     <g id="text_40">
      <!-- Preventive -->
      <g transform="translate(51.218437 1311.300015) scale(0.18 -0.18)">
       <use xlink:href="#DejaVuSans-50"/>
       <use xlink:href="#DejaVuSans-72" transform="translate(58.552734 0)"/>
       <use xlink:href="#DejaVuSans-65" transform="translate(97.416016 0)"/>
       <use xlink:href="#DejaVuSans-76" transform="translate(158.939453 0)"/>
       <use xlink:href="#DejaVuSans-65" transform="translate(218.119141 0)"/>
       <use xlink:href="#DejaVuSans-6e" transform="translate(279.642578 0)"/>
       <use xlink:href="#DejaVuSans-74" transform="translate(343.021484 0)"/>
       <use xlink:href="#DejaVuSans-69" transform="translate(382.230469 0)"/>
       <use xlink:href="#DejaVuSans-76" transform="translate(410.013672 0)"/>
       <use xlink:href="#DejaVuSans-65" transform="translate(469.193359 0)"/>
      </g>
     </g>
    </g>
   </g>
   <g id="patch_118">
    <path d="M 153.750625 1386.838125 
L 153.750625 23.878125 
" style="fill: none; stroke: #000000; stroke-width: 0.8; stroke-linejoin: miter; stroke-linecap: square"/>
   </g>
   <g id="patch_119">
    <path d="M 849.560625 1386.838125 
L 849.560625 23.878125 
" style="fill: none; stroke: #000000; stroke-width: 0.8; stroke-linejoin: miter; stroke-linecap: square"/>
   </g>
   <g id="patch_120">
    <path d="M 153.750625 1386.838125 
L 849.560625 1386.838125 
" style="fill: none; stroke: #000000; stroke-width: 0.8; stroke-linejoin: miter; stroke-linecap: square"/>
   </g>
   <g id="patch_121">
    <path d="M 153.750625 23.878125 
L 849.560625 23.878125 
" style="fill: none; stroke: #000000; stroke-width: 0.8; stroke-linejoin: miter; stroke-linecap: square"/>
   </g>
   <g id="legend_1">
    <g id="patch_122">
     <path d="M 554.385937 1379.838125 
L 839.760625 1379.838125 
Q 842.560625 1379.838125 842.560625 1377.038125 
L 842.560625 1251.270625 
Q 842.560625 1248.470625 839.760625 1248.470625 
L 554.385937 1248.470625 
Q 551.585938 1248.470625 551.585938 1251.270625 
L 551.585938 1377.038125 
Q 551.585938 1379.838125 554.385937 1379.838125 
z
" style="fill: #ffffff; opacity: 0.8; stroke: #cccccc; stroke-linejoin: miter"/>
    </g>
    <g id="text_41">
     <!-- Top-N Co-occurrence Rank -->
     <g transform="translate(578.451875 1267.747813) scale(0.18 -0.18)">
      <defs>
       <path id="DejaVuSans-54" d="M -19 4666 
L 3928 4666 
L 3928 4134 
L 2272 4134 
L 2272 0 
L 1638 0 
L 1638 4134 
L -19 4134 
L -19 4666 
z
" transform="scale(0.015625)"/>
       <path id="DejaVuSans-2d" d="M 313 2009 
L 1997 2009 
L 1997 1497 
L 313 1497 
L 313 2009 
z
" transform="scale(0.015625)"/>
       <path id="DejaVuSans-6b" d="M 581 4863 
L 1159 4863 
L 1159 1991 
L 2875 3500 
L 3609 3500 
L 1753 1863 
L 3688 0 
L 2938 0 
L 1159 1709 
L 1159 0 
L 581 0 
L 581 4863 
z
" transform="scale(0.015625)"/>
      </defs>
      <use xlink:href="#DejaVuSans-54"/>
      <use xlink:href="#DejaVuSans-6f" transform="translate(44.083984 0)"/>
      <use xlink:href="#DejaVuSans-70" transform="translate(105.265625 0)"/>
      <use xlink:href="#DejaVuSans-2d" transform="translate(168.742188 0)"/>
      <use xlink:href="#DejaVuSans-4e" transform="translate(204.826172 0)"/>
      <use xlink:href="#DejaVuSans-20" transform="translate(279.630859 0)"/>
      <use xlink:href="#DejaVuSans-43" transform="translate(311.417969 0)"/>
      <use xlink:href="#DejaVuSans-6f" transform="translate(381.242188 0)"/>
      <use xlink:href="#DejaVuSans-2d" transform="translate(444.298828 0)"/>
      <use xlink:href="#DejaVuSans-6f" transform="translate(482.257812 0)"/>
      <use xlink:href="#DejaVuSans-63" transform="translate(543.439453 0)"/>
      <use xlink:href="#DejaVuSans-63" transform="translate(598.419922 0)"/>
      <use xlink:href="#DejaVuSans-75" transform="translate(653.400391 0)"/>
      <use xlink:href="#DejaVuSans-72" transform="translate(716.779297 0)"/>
      <use xlink:href="#DejaVuSans-72" transform="translate(756.142578 0)"/>
      <use xlink:href="#DejaVuSans-65" transform="translate(795.005859 0)"/>
      <use xlink:href="#DejaVuSans-6e" transform="translate(856.529297 0)"/>
      <use xlink:href="#DejaVuSans-63" transform="translate(919.908203 0)"/>
      <use xlink:href="#DejaVuSans-65" transform="translate(974.888672 0)"/>
      <use xlink:href="#DejaVuSans-20" transform="translate(1036.412109 0)"/>
      <use xlink:href="#DejaVuSans-52" transform="translate(1068.199219 0)"/>
      <use xlink:href="#DejaVuSans-61" transform="translate(1135.431641 0)"/>
      <use xlink:href="#DejaVuSans-6e" transform="translate(1196.710938 0)"/>
      <use xlink:href="#DejaVuSans-6b" transform="translate(1260.089844 0)"/>
     </g>
    </g>
    <g id="patch_123">
     <path d="M 557.185938 1289.129063 
L 585.185938 1289.129063 
L 585.185938 1279.329063 
L 557.185938 1279.329063 
z
" style="fill: #1f77b4"/>
    </g>
    <g id="text_42">
     <!-- Top 1 (Most Frequent Appearance) -->
     <g transform="translate(596.385938 1289.129063) scale(0.14 -0.14)">
      <defs>
       <path id="DejaVuSans-46" d="M 628 4666 
L 3309 4666 
L 3309 4134 
L 1259 4134 
L 1259 2759 
L 3109 2759 
L 3109 2228 
L 1259 2228 
L 1259 0 
L 628 0 
L 628 4666 
z
" transform="scale(0.015625)"/>
       <path id="DejaVuSans-71" d="M 947 1747 
Q 947 1113 1208 752 
Q 1469 391 1925 391 
Q 2381 391 2643 752 
Q 2906 1113 2906 1747 
Q 2906 2381 2643 2742 
Q 2381 3103 1925 3103 
Q 1469 3103 1208 2742 
Q 947 2381 947 1747 
z
M 2906 525 
Q 2725 213 2448 61 
Q 2172 -91 1784 -91 
Q 1150 -91 751 415 
Q 353 922 353 1747 
Q 353 2572 751 3078 
Q 1150 3584 1784 3584 
Q 2172 3584 2448 3432 
Q 2725 3281 2906 2969 
L 2906 3500 
L 3481 3500 
L 3481 -1331 
L 2906 -1331 
L 2906 525 
z
" transform="scale(0.015625)"/>
      </defs>
      <use xlink:href="#DejaVuSans-54"/>
      <use xlink:href="#DejaVuSans-6f" transform="translate(44.083984 0)"/>
      <use xlink:href="#DejaVuSans-70" transform="translate(105.265625 0)"/>
      <use xlink:href="#DejaVuSans-20" transform="translate(168.742188 0)"/>
      <use xlink:href="#DejaVuSans-31" transform="translate(200.529297 0)"/>
      <use xlink:href="#DejaVuSans-20" transform="translate(264.152344 0)"/>
      <use xlink:href="#DejaVuSans-28" transform="translate(295.939453 0)"/>
      <use xlink:href="#DejaVuSans-4d" transform="translate(334.953125 0)"/>
      <use xlink:href="#DejaVuSans-6f" transform="translate(421.232422 0)"/>
      <use xlink:href="#DejaVuSans-73" transform="translate(482.414062 0)"/>
      <use xlink:href="#DejaVuSans-74" transform="translate(534.513672 0)"/>
      <use xlink:href="#DejaVuSans-20" transform="translate(573.722656 0)"/>
      <use xlink:href="#DejaVuSans-46" transform="translate(605.509766 0)"/>
      <use xlink:href="#DejaVuSans-72" transform="translate(655.779297 0)"/>
      <use xlink:href="#DejaVuSans-65" transform="translate(694.642578 0)"/>
      <use xlink:href="#DejaVuSans-71" transform="translate(756.166016 0)"/>
      <use xlink:href="#DejaVuSans-75" transform="translate(819.642578 0)"/>
      <use xlink:href="#DejaVuSans-65" transform="translate(883.021484 0)"/>
      <use xlink:href="#DejaVuSans-6e" transform="translate(944.544922 0)"/>
      <use xlink:href="#DejaVuSans-74" transform="translate(1007.923828 0)"/>
      <use xlink:href="#DejaVuSans-20" transform="translate(1047.132812 0)"/>
      <use xlink:href="#DejaVuSans-41" transform="translate(1078.919922 0)"/>
      <use xlink:href="#DejaVuSans-70" transform="translate(1147.328125 0)"/>
      <use xlink:href="#DejaVuSans-70" transform="translate(1210.804688 0)"/>
      <use xlink:href="#DejaVuSans-65" transform="translate(1274.28125 0)"/>
      <use xlink:href="#DejaVuSans-61" transform="translate(1335.804688 0)"/>
      <use xlink:href="#DejaVuSans-72" transform="translate(1397.083984 0)"/>
      <use xlink:href="#DejaVuSans-61" transform="translate(1438.197266 0)"/>
      <use xlink:href="#DejaVuSans-6e" transform="translate(1499.476562 0)"/>
      <use xlink:href="#DejaVuSans-63" transform="translate(1562.855469 0)"/>
      <use xlink:href="#DejaVuSans-65" transform="translate(1617.835938 0)"/>
      <use xlink:href="#DejaVuSans-29" transform="translate(1679.359375 0)"/>
     </g>
    </g>
    <g id="patch_124">
     <path d="M 557.185938 1309.678438 
L 585.185938 1309.678438 
L 585.185938 1299.878438 
L 557.185938 1299.878438 
z
" style="fill: #ff7f0e"/>
    </g>
    <g id="text_43">
     <!-- Top 2 -->
     <g transform="translate(596.385938 1309.678438) scale(0.14 -0.14)">
      <use xlink:href="#DejaVuSans-54"/>
      <use xlink:href="#DejaVuSans-6f" transform="translate(44.083984 0)"/>
      <use xlink:href="#DejaVuSans-70" transform="translate(105.265625 0)"/>
      <use xlink:href="#DejaVuSans-20" transform="translate(168.742188 0)"/>
      <use xlink:href="#DejaVuSans-32" transform="translate(200.529297 0)"/>
     </g>
    </g>
    <g id="patch_125">
     <path d="M 557.185938 1330.227813 
L 585.185938 1330.227813 
L 585.185938 1320.427813 
L 557.185938 1320.427813 
z
" style="fill: #2ca02c"/>
    </g>
    <g id="text_44">
     <!-- Top 3 -->
     <g transform="translate(596.385938 1330.227813) scale(0.14 -0.14)">
      <use xlink:href="#DejaVuSans-54"/>
      <use xlink:href="#DejaVuSans-6f" transform="translate(44.083984 0)"/>
      <use xlink:href="#DejaVuSans-70" transform="translate(105.265625 0)"/>
      <use xlink:href="#DejaVuSans-20" transform="translate(168.742188 0)"/>
      <use xlink:href="#DejaVuSans-33" transform="translate(200.529297 0)"/>
     </g>
    </g>
    <g id="patch_126">
     <path d="M 557.185938 1350.777188 
L 585.185938 1350.777188 
L 585.185938 1340.977188 
L 557.185938 1340.977188 
z
" style="fill: #d62728"/>
    </g>
    <g id="text_45">
     <!-- Top 4 -->
     <g transform="translate(596.385938 1350.777188) scale(0.14 -0.14)">
      <use xlink:href="#DejaVuSans-54"/>
      <use xlink:href="#DejaVuSans-6f" transform="translate(44.083984 0)"/>
      <use xlink:href="#DejaVuSans-70" transform="translate(105.265625 0)"/>
      <use xlink:href="#DejaVuSans-20" transform="translate(168.742188 0)"/>
      <use xlink:href="#DejaVuSans-34" transform="translate(200.529297 0)"/>
     </g>
    </g>
    <g id="patch_127">
     <path d="M 557.185938 1371.326563 
L 585.185938 1371.326563 
L 585.185938 1361.526563 
L 557.185938 1361.526563 
z
" style="fill: #9467bd"/>
    </g>
    <g id="text_46">
     <!-- Top 5 -->
     <g transform="translate(596.385938 1371.326563) scale(0.14 -0.14)">
      <use xlink:href="#DejaVuSans-54"/>
      <use xlink:href="#DejaVuSans-6f" transform="translate(44.083984 0)"/>
      <use xlink:href="#DejaVuSans-70" transform="translate(105.265625 0)"/>
      <use xlink:href="#DejaVuSans-20" transform="translate(168.742188 0)"/>
      <use xlink:href="#DejaVuSans-35" transform="translate(200.529297 0)"/>
     </g>
    </g>
   </g>
  </g>
 </g>
 <defs>
  <clipPath id="p0939e9a964">
   <rect x="153.750625" y="23.878125" width="695.81" height="1362.96"/>
  </clipPath>
 </defs>
</svg>
